<?xml version="1.0" encoding="utf-8"?>
<!DOCTYPE svg PUBLIC "-//W3C//DTD SVG 20010904//EN" "http://www.w3.org/TR/2001/REC-SVG-20010904/DTD/svg10.dtd">
<svg version="1.0" xmlns="http://www.w3.org/2000/svg" width="449pt" height="449pt" viewBox="0 0 449 449" style="" preserveAspectRatio="xMidYMid meet">
<g fill="#FEFEFEFE" stroke="#FEFEFEFE">
<path d="M 284.551 240.000 C 277.916 242.251 271.293 247.363 269.523 251.600 C 267.335 256.837 266.263 264.984 267.300 268.500 C 268.817 273.645 273.371 282.000 274.658 282.000 C 275.334 282.000 276.515 282.897 277.283 283.994 C 278.051 285.090 278.977 285.690 279.340 285.327 C 279.703 284.964 280.000 285.164 280.000 285.771 C 280.000 286.379 280.788 286.868 281.750 286.858 C 282.713 286.849 287.475 287.303 292.334 287.868 C 300.849 288.857 303.060 289.685 305.750 292.892 C 307.242 294.670 307.419 299.000 306.000 299.000 C 305.450 299.000 305.113 299.548 305.250 300.217 C 305.656 302.192 298.881 304.997 293.700 304.998 C 288.393 305.000 282.535 302.561 283.622 300.803 C 284.043 300.122 283.853 299.973 283.134 300.417 C 282.386 300.879 281.430 299.879 280.507 297.670 C 279.078 294.250 278.967 294.199 273.361 294.350 C 269.744 294.447 267.510 294.969 267.240 295.780 C 266.324 298.529 269.198 306.684 272.225 309.922 C 277.423 315.484 283.034 317.423 294.251 317.532 C 299.614 317.584 304.114 317.385 304.251 317.091 C 304.388 316.796 306.628 315.495 309.228 314.199 C 313.458 312.091 320.989 304.422 320.186 303.040 C 320.013 302.743 320.125 301.147 320.435 299.493 C 320.746 297.839 320.598 295.086 320.108 293.377 C 319.618 291.667 319.505 289.803 319.858 289.235 C 320.254 288.597 328.408 288.067 341.154 287.851 C 352.514 287.658 361.622 287.199 361.395 286.831 C 361.168 286.464 362.370 285.858 364.066 285.486 C 366.630 284.922 376.220 277.679 376.624 276.000 C 378.778 267.059 379.159 263.609 378.461 259.372 C 378.019 256.692 377.735 254.163 377.829 253.750 C 377.923 253.338 377.550 253.000 377.000 253.000 C 376.450 253.000 375.984 252.438 375.964 251.750 C 375.870 248.496 365.630 240.000 361.801 240.000 C 360.746 240.000 360.160 239.550 360.500 239.000 C 362.097 236.416 343.188 239.548 338.315 242.675 C 336.767 243.669 334.411 245.469 333.080 246.676 L 330.660 248.870 334.287 250.600 C 336.282 251.551 337.697 252.681 337.431 253.111 C 337.165 253.541 339.025 253.766 341.564 253.610 C 344.102 253.455 346.526 252.766 346.950 252.080 C 348.289 249.915 356.590 250.574 360.631 253.167 C 362.631 254.450 363.739 255.382 363.094 255.237 C 362.449 255.092 362.886 256.280 364.067 257.876 C 365.819 260.247 366.084 261.543 365.510 264.941 C 364.861 268.784 361.264 273.823 358.955 274.125 C 357.924 274.260 356.447 274.606 355.250 274.992 C 354.055 275.378 318.541 274.844 318.115 274.434 C 317.904 274.231 318.235 272.812 318.852 271.282 C 320.169 268.014 320.897 257.000 319.795 257.000 C 319.379 257.000 318.756 255.875 318.411 254.500 C 318.066 253.125 317.382 252.000 316.892 252.000 C 316.401 252.000 316.000 251.550 316.000 251.000 C 316.000 250.450 317.350 250.000 319.000 250.000 C 321.986 250.000 322.000 249.972 321.999 244.250 L 321.998 238.500 305.485 238.500 C 293.439 238.500 287.776 238.906 284.551 240.000 M 299.000 252.230 C 299.000 252.718 299.417 252.860 299.928 252.545 C 300.438 252.229 302.029 252.990 303.464 254.236 C 307.156 257.440 307.965 266.058 305.019 270.799 C 303.892 272.614 302.565 273.849 302.070 273.543 C 301.575 273.238 301.011 273.467 300.816 274.052 C 300.227 275.820 289.196 276.053 287.477 274.334 C 286.665 273.522 286.000 273.222 286.000 273.668 C 286.000 274.115 284.857 273.247 283.460 271.740 C 282.062 270.233 281.252 269.000 281.660 269.000 C 282.067 269.000 281.860 268.460 281.200 267.800 C 279.764 266.364 279.641 262.073 280.939 258.661 C 282.074 255.676 285.975 251.866 287.151 252.594 C 287.618 252.882 288.000 252.618 288.000 252.008 C 288.000 251.301 290.002 250.978 293.500 251.120 C 296.525 251.242 299.000 251.742 299.000 252.230 "/></g>
<g fill="#FEFEFEFE" stroke="#FEFEFEFE">
<path d="M 91.500 152.930 C 85.938 154.276 81.101 157.166 77.040 161.573 C 74.818 163.983 73.000 166.640 73.000 167.478 C 73.000 168.315 72.583 169.000 72.072 169.000 C 71.562 169.000 71.164 172.713 71.187 177.250 C 71.221 183.838 71.697 186.424 73.550 190.090 C 78.123 199.133 86.994 203.996 98.932 204.004 C 108.161 204.010 114.321 209.396 112.020 215.448 C 110.441 219.601 106.436 221.441 98.910 221.472 C 91.233 221.504 87.581 219.615 85.000 214.275 C 83.610 211.400 83.069 211.148 77.621 210.836 C 73.362 210.593 71.600 210.872 71.225 211.850 C 70.787 212.998 71.466 216.985 73.109 222.910 C 73.324 223.686 75.003 225.774 76.841 227.549 C 80.080 230.680 83.658 232.521 91.071 234.869 C 95.112 236.149 105.000 236.403 105.000 235.227 C 105.000 234.802 106.913 233.976 109.250 233.392 C 115.983 231.708 116.093 231.656 119.608 228.500 C 125.856 222.890 128.230 213.400 125.236 206.000 C 124.075 203.130 117.498 196.835 116.600 197.733 C 116.270 198.063 116.000 198.020 116.000 197.636 C 116.000 197.253 117.598 195.536 119.551 193.821 C 121.504 192.106 123.829 189.307 124.718 187.602 C 126.627 183.937 126.814 173.912 125.055 169.500 C 124.398 167.850 123.929 166.325 124.015 166.112 C 124.101 165.898 123.570 165.343 122.835 164.877 C 121.958 164.321 122.700 164.024 125.000 164.012 C 128.340 163.995 128.509 163.823 128.687 160.247 C 129.123 151.539 130.083 151.987 111.231 152.102 C 102.029 152.159 93.150 152.531 91.500 152.930 M 104.461 165.985 C 112.247 168.945 115.511 178.688 111.000 185.500 C 109.907 187.150 109.010 188.163 109.007 187.750 C 109.003 187.338 108.100 187.900 107.000 189.000 C 102.841 193.159 87.000 190.399 87.000 185.515 C 87.000 184.682 86.564 184.000 86.031 184.000 C 85.499 184.000 85.322 183.325 85.638 182.500 C 85.955 181.675 85.716 181.000 85.107 181.000 C 84.498 181.000 84.000 179.650 84.000 178.000 C 84.000 176.350 84.470 175.000 85.044 175.000 C 85.618 175.000 85.974 174.438 85.834 173.750 C 84.653 167.932 96.544 162.975 104.461 165.985 "/></g>
<g fill="#FEFEFEFE" stroke="#FEFEFEFE">
<path d="M 132.259 250.196 C 131.639 250.948 131.135 256.621 131.069 263.589 C 130.931 277.969 130.094 281.408 125.771 285.356 C 117.079 293.295 106.000 285.139 106.000 270.801 C 106.000 265.519 104.836 264.223 99.471 263.536 C 92.342 262.623 90.559 267.128 92.985 279.922 C 94.327 286.999 100.078 295.541 104.479 296.993 C 106.327 297.603 108.381 298.754 109.042 299.551 C 110.523 301.335 125.976 301.590 129.316 299.885 C 130.517 299.272 133.878 296.460 136.784 293.635 L 142.067 288.500 163.784 288.274 C 175.728 288.150 187.188 287.949 189.250 287.829 L 193.000 287.609 193.000 280.208 C 193.000 267.298 187.232 253.825 181.060 252.317 C 179.652 251.973 178.178 251.199 177.785 250.596 C 176.632 248.830 163.000 249.368 159.500 251.317 C 157.850 252.236 156.096 252.990 155.603 252.994 C 155.110 252.997 152.722 254.625 150.298 256.612 C 147.874 258.598 145.717 260.050 145.505 259.838 C 145.293 259.626 145.017 257.203 144.891 254.454 L 144.663 249.454 138.999 249.173 C 135.260 248.988 132.968 249.336 132.259 250.196 M 142.557 256.000 C 142.653 261.848 143.875 265.349 145.383 264.097 C 146.099 263.503 146.931 263.264 147.233 263.566 C 147.535 263.868 148.697 262.830 149.815 261.259 C 153.085 256.667 162.115 252.655 169.368 252.573 C 180.175 252.450 186.390 258.348 189.310 271.500 C 191.042 279.304 190.626 283.594 188.000 285.000 C 187.035 285.517 176.402 285.912 164.373 285.878 C 143.410 285.819 137.000 286.533 137.000 288.925 C 137.000 290.886 130.377 296.034 126.000 297.475 C 123.525 298.290 119.475 298.813 117.000 298.638 C 112.660 298.331 103.896 294.561 103.125 292.670 C 102.919 292.164 101.925 290.925 100.916 289.916 C 97.103 286.103 95.000 280.306 95.000 273.607 C 95.000 266.754 95.838 265.653 100.500 266.375 C 102.152 266.631 102.683 267.888 103.550 273.600 C 104.738 281.427 108.463 289.000 111.125 289.000 C 112.091 289.000 113.194 289.505 113.575 290.122 C 114.036 290.867 116.143 291.024 119.852 290.588 C 124.792 290.007 125.860 289.449 129.112 285.747 C 133.231 281.058 133.641 279.175 133.950 263.513 C 134.164 252.710 134.605 251.814 139.500 252.239 C 142.199 252.474 142.506 252.851 142.557 256.000 "/></g>
<g fill="#FEFEFEFE" stroke="#FEFEFEFE">
<path d="M 200.593 132.393 C 200.282 133.552 200.021 149.598 200.014 168.050 C 200.004 192.827 200.314 201.914 201.200 202.800 C 202.856 204.456 210.507 204.307 213.901 202.551 C 216.301 201.310 216.986 201.302 218.690 202.496 C 222.345 205.056 230.570 205.471 236.655 203.403 C 245.763 200.307 250.945 193.971 252.892 183.550 C 254.007 177.581 252.730 167.587 250.577 165.434 C 249.710 164.567 249.000 163.261 249.000 162.532 C 249.000 160.683 242.643 155.295 238.341 153.498 C 232.375 151.005 221.594 151.893 216.250 155.317 C 215.277 155.940 215.000 153.683 215.000 145.141 C 215.000 133.928 214.482 130.584 212.895 131.565 C 212.403 131.869 212.000 131.706 212.000 131.202 C 212.000 130.698 209.561 130.286 206.579 130.286 C 201.912 130.286 201.080 130.579 200.593 132.393 M 210.418 133.607 C 211.722 134.107 212.002 136.083 212.014 144.857 C 212.028 156.000 212.599 160.000 214.176 160.000 C 214.694 160.000 214.797 159.480 214.405 158.845 C 213.970 158.143 214.129 157.962 214.811 158.383 C 215.427 158.764 217.729 158.159 219.926 157.038 C 224.703 154.601 230.280 154.440 236.523 156.559 C 242.614 158.627 244.659 160.493 247.603 166.667 C 250.426 172.588 251.065 181.330 249.105 187.215 C 247.473 192.117 240.092 199.826 235.872 201.037 C 230.695 202.521 224.137 202.182 220.654 200.250 C 218.919 199.288 217.344 198.144 217.153 197.708 C 216.962 197.273 216.088 197.498 215.211 198.208 C 214.004 199.185 213.799 199.196 214.367 198.250 C 214.783 197.557 214.635 197.000 214.034 197.000 C 213.438 197.000 212.539 198.083 212.036 199.406 C 211.260 201.446 210.564 201.760 207.460 201.472 C 205.446 201.285 203.506 200.840 203.149 200.484 C 202.355 199.692 201.631 136.403 202.394 134.417 C 202.947 132.973 207.555 132.508 210.418 133.607 "/></g>
<g fill="#FEFEFEFE" stroke="#FEFEFEFE">
<path d="M 152.297 153.447 C 149.986 154.170 147.866 154.532 147.586 154.253 C 146.575 153.242 137.922 162.530 135.809 166.895 C 132.619 173.484 132.582 183.880 135.726 189.939 C 137.028 192.448 139.222 195.513 140.602 196.750 C 141.982 197.988 142.861 199.056 142.556 199.125 C 141.932 199.265 143.392 199.685 145.167 199.875 C 145.808 199.944 145.999 200.334 145.591 200.742 C 145.183 201.151 145.445 201.495 146.174 201.508 C 146.903 201.521 149.915 202.144 152.866 202.893 C 159.816 204.657 169.350 203.882 174.779 201.113 C 177.101 199.928 179.053 199.081 179.118 199.230 C 179.184 199.378 179.194 199.194 179.142 198.819 C 179.089 198.445 180.273 197.091 181.773 195.810 C 184.814 193.213 186.240 190.675 188.473 183.880 C 190.399 178.017 189.503 171.404 185.897 164.889 C 185.170 163.575 184.639 162.256 184.718 161.958 C 184.797 161.660 182.653 159.909 179.954 158.068 C 171.716 152.446 161.149 150.681 152.297 153.447 M 167.453 166.161 C 168.854 166.799 170.000 167.725 170.000 168.220 C 170.000 168.714 170.458 168.835 171.018 168.489 C 172.305 167.693 175.800 175.360 175.489 178.298 C 175.360 179.509 175.198 181.240 175.128 182.144 C 174.912 184.928 169.591 189.743 165.474 190.880 C 160.344 192.296 154.526 190.751 150.625 186.938 C 148.171 184.539 147.656 183.173 147.461 178.548 C 147.309 174.926 147.587 173.245 148.269 173.666 C 148.892 174.051 149.007 173.821 148.557 173.091 C 147.590 171.527 150.622 168.114 154.500 166.403 C 158.250 164.747 164.111 164.638 167.453 166.161 "/></g>
<g fill="#F29A1EFE" stroke="#F29A1EFE">
<path d="M 202.394 134.417 C 201.631 136.403 202.355 199.692 203.149 200.484 C 203.506 200.840 205.446 201.285 207.460 201.472 C 210.580 201.762 211.259 201.450 212.053 199.361 C 212.894 197.148 215.446 196.446 217.000 198.000 C 220.613 201.613 229.100 202.979 235.872 201.037 C 240.092 199.826 247.473 192.117 249.105 187.215 C 251.065 181.330 250.426 172.588 247.603 166.667 C 244.659 160.493 242.614 158.627 236.523 156.559 C 229.900 154.311 224.709 154.607 218.867 157.567 C 216.081 158.979 213.508 159.843 213.151 159.487 C 212.793 159.130 212.347 153.364 212.161 146.673 C 211.943 138.876 211.405 134.242 210.661 133.769 C 208.629 132.476 202.968 132.920 202.394 134.417 M 231.129 164.313 C 233.761 164.795 238.000 167.933 238.000 169.401 C 238.000 170.146 238.713 171.347 239.585 172.070 C 240.815 173.092 241.017 174.403 240.489 177.943 C 238.932 188.382 234.466 192.989 225.898 192.996 C 220.338 193.001 215.554 190.077 212.815 185.000 C 210.095 179.959 211.151 172.483 215.102 168.808 C 221.652 162.716 221.946 162.634 231.129 164.313 "/></g>
<g fill="#F29A1EFE" stroke="#F29A1EFE">
<path d="M 135.324 252.753 C 134.576 253.245 134.076 257.166 133.950 263.513 C 133.641 279.175 133.231 281.058 129.112 285.747 C 125.860 289.449 124.792 290.007 119.852 290.588 C 116.143 291.024 114.036 290.867 113.575 290.122 C 113.194 289.505 112.091 289.000 111.125 289.000 C 108.463 289.000 104.738 281.427 103.550 273.600 C 102.683 267.888 102.152 266.631 100.500 266.375 C 95.838 265.653 95.000 266.754 95.000 273.607 C 95.000 280.306 97.103 286.103 100.916 289.916 C 101.925 290.925 102.919 292.164 103.125 292.670 C 103.896 294.561 112.660 298.331 117.000 298.638 C 119.475 298.813 123.525 298.290 126.000 297.475 C 130.377 296.034 137.000 290.886 137.000 288.925 C 137.000 286.533 143.410 285.819 164.373 285.878 C 176.402 285.912 187.035 285.517 188.000 285.000 C 190.626 283.594 191.042 279.304 189.310 271.500 C 186.390 258.348 180.175 252.450 169.368 252.573 C 162.115 252.655 153.085 256.667 149.815 261.259 C 148.697 262.830 147.535 263.868 147.233 263.566 C 146.931 263.264 146.099 263.503 145.383 264.097 C 143.875 265.349 142.653 261.848 142.557 256.000 C 142.506 252.851 142.199 252.474 139.500 252.239 C 137.850 252.096 135.971 252.327 135.324 252.753 M 176.197 262.802 C 179.968 266.878 181.397 272.031 179.756 275.635 C 178.818 277.696 178.269 277.759 163.786 277.478 C 155.537 277.318 148.341 276.741 147.794 276.194 C 146.394 274.794 147.516 271.998 150.881 268.500 C 155.226 263.984 157.860 262.000 159.511 262.000 C 160.330 262.000 161.000 261.583 161.000 261.073 C 161.000 259.889 163.431 259.262 168.589 259.116 C 172.112 259.016 173.166 259.527 176.197 262.802 "/></g>
<g fill="#FEFEFEFE" stroke="#FEFEFEFE">
<path d="M 259.652 154.132 C 258.389 156.063 258.140 159.547 258.302 173.000 C 258.482 188.035 258.707 189.920 260.832 194.234 C 262.360 197.337 264.745 200.036 267.754 202.067 C 271.764 204.773 272.987 205.107 277.422 204.705 C 280.215 204.453 284.390 203.743 286.701 203.129 C 289.563 202.368 291.734 202.329 293.516 203.006 C 297.598 204.558 303.573 204.219 305.126 202.348 C 306.201 201.053 306.497 195.667 306.499 177.432 C 306.499 164.636 306.158 153.825 305.740 153.407 C 305.322 152.989 302.622 152.729 299.740 152.830 C 290.443 153.154 291.216 151.724 291.053 168.899 C 290.939 180.946 290.573 184.722 289.338 186.607 C 286.145 191.480 276.821 191.290 274.929 186.312 C 274.418 184.969 274.000 177.685 274.000 170.126 C 274.000 153.851 273.613 152.958 266.268 152.252 C 261.762 151.819 261.029 152.027 259.652 154.132 M 271.095 169.626 C 270.779 189.446 272.501 193.000 282.418 193.000 C 286.032 193.000 287.641 192.400 290.234 190.083 L 293.500 187.167 293.825 171.841 C 294.004 163.412 294.289 156.378 294.458 156.209 C 294.627 156.040 296.730 155.812 299.132 155.701 L 303.500 155.500 303.769 177.621 L 304.038 199.742 301.110 200.955 C 298.115 202.195 294.468 201.189 292.830 198.671 C 291.843 197.154 289.000 196.975 289.000 198.430 C 289.000 201.282 276.080 203.089 271.736 200.845 C 270.506 200.209 268.825 199.377 268.000 198.996 C 267.175 198.615 266.032 197.383 265.461 196.258 C 264.889 195.134 263.764 193.422 262.961 192.454 C 261.837 191.101 261.420 186.708 261.153 173.430 L 260.805 156.165 263.153 155.696 C 264.444 155.439 266.810 155.289 268.410 155.364 L 271.321 155.500 271.095 169.626 "/></g>
<g fill="#FEFEFEFE" stroke="#FEFEFEFE">
<path d="M 323.250 153.119 C 321.463 153.635 320.000 154.494 320.000 155.029 C 320.000 155.563 319.356 156.000 318.568 156.000 C 316.564 156.000 313.394 160.831 312.664 165.000 C 311.984 168.880 313.359 176.286 314.851 176.784 C 315.378 176.959 316.990 178.118 318.434 179.359 C 319.912 180.629 324.430 182.428 328.779 183.477 C 337.602 185.607 340.000 186.611 340.000 188.175 C 340.000 189.966 336.717 191.934 333.673 191.968 C 331.871 191.988 329.816 190.970 328.005 189.159 C 325.983 187.137 324.348 186.398 322.332 186.595 C 310.623 187.743 308.025 191.818 314.841 198.348 C 320.997 204.246 335.442 206.802 343.525 203.425 C 348.170 201.484 354.000 196.934 354.000 195.250 C 354.000 194.563 354.450 194.000 355.000 194.000 C 356.367 194.000 356.160 185.283 354.694 181.075 C 353.183 176.742 348.181 173.914 337.748 171.497 C 329.275 169.533 326.966 167.951 329.000 165.500 C 330.701 163.450 335.227 163.614 338.115 165.830 C 341.978 168.793 343.818 169.056 348.280 167.282 C 354.297 164.890 355.381 163.625 353.783 160.857 C 351.717 157.281 347.762 154.115 344.000 153.025 C 339.721 151.785 327.679 151.840 323.250 153.119 M 340.500 155.000 C 340.840 155.550 341.913 156.000 342.885 156.000 C 343.856 156.000 345.708 157.125 347.000 158.500 C 348.292 159.875 349.945 161.000 350.674 161.000 C 352.862 161.000 352.174 162.600 349.453 163.839 C 345.955 165.433 342.489 165.294 341.000 163.500 C 339.369 161.535 330.164 161.496 327.385 163.443 C 325.028 165.094 324.915 168.058 327.126 170.269 C 327.959 171.102 331.309 172.311 334.570 172.957 C 340.506 174.131 349.000 177.834 349.000 179.248 C 349.000 179.662 349.631 180.000 350.402 180.000 C 352.507 180.000 353.890 185.134 353.039 189.788 C 351.348 199.033 338.281 204.222 324.653 201.060 C 320.830 200.172 316.660 197.065 314.891 193.784 C 314.164 192.435 314.558 191.769 316.733 190.666 C 320.067 188.976 322.517 189.253 325.125 191.613 C 327.518 193.778 337.767 194.730 340.860 193.075 C 343.639 191.588 343.924 185.232 341.250 184.378 C 340.288 184.070 338.600 183.426 337.500 182.946 C 334.292 181.547 323.714 179.058 322.959 179.526 C 322.578 179.761 321.462 179.063 320.479 177.976 C 319.495 176.889 318.105 176.000 317.390 176.000 C 314.115 176.000 314.357 163.427 317.683 160.730 C 323.374 156.116 328.515 154.024 334.191 154.012 C 337.321 154.005 340.160 154.450 340.500 155.000 "/></g>
<g fill="#FEFEFEFE" stroke="#FEFEFEFE">
<path d="M 199.969 235.537 C 198.389 237.441 198.550 273.228 200.169 279.716 C 200.972 282.938 202.060 284.428 204.780 286.033 C 208.062 287.969 209.565 288.108 224.068 287.816 C 241.765 287.460 242.610 287.142 246.119 279.500 C 248.502 274.311 248.856 252.998 246.596 250.739 C 244.784 248.927 236.118 249.204 234.909 251.113 C 234.426 251.876 234.024 256.855 234.015 262.179 C 234.004 269.629 233.638 272.219 232.429 273.429 C 230.242 275.615 218.823 275.585 215.465 273.385 L 213.000 271.770 213.000 254.085 C 213.000 241.663 212.643 236.043 211.800 235.200 C 210.032 233.432 201.515 233.675 199.969 235.537 M 209.979 238.961 C 210.626 240.169 210.904 246.841 210.704 256.325 C 210.525 264.797 210.712 272.577 211.119 273.614 C 211.526 274.651 211.905 275.050 211.960 274.500 C 212.016 273.950 212.519 274.288 213.080 275.250 C 213.934 276.717 215.594 277.000 223.327 277.000 C 236.751 277.000 237.000 276.743 237.000 262.886 L 237.000 251.885 241.142 252.193 L 245.285 252.500 245.194 263.550 C 245.030 283.432 242.204 285.999 220.500 285.978 C 209.931 285.968 209.381 285.861 206.457 283.234 C 204.783 281.730 202.871 278.648 202.207 276.384 C 200.942 272.071 200.519 245.657 201.625 240.125 C 202.175 237.374 202.649 237.000 205.590 237.000 C 207.884 237.000 209.258 237.614 209.979 238.961 "/></g>
<g fill="#F29A1EFE" stroke="#F29A1EFE">
<path d="M 263.153 155.696 L 260.805 156.165 261.153 173.430 C 261.420 186.708 261.837 191.101 262.961 192.454 C 263.764 193.422 264.889 195.134 265.461 196.258 C 266.032 197.383 267.175 198.615 268.000 198.996 C 268.825 199.377 270.506 200.209 271.736 200.845 C 275.967 203.030 289.000 201.301 289.000 198.555 C 289.000 197.934 289.900 197.358 291.000 197.275 C 292.100 197.192 293.000 197.699 293.000 198.402 C 293.000 200.723 297.970 202.255 301.183 200.924 L 304.038 199.742 303.769 177.621 L 303.500 155.500 299.132 155.701 C 296.730 155.812 294.627 156.040 294.458 156.209 C 294.289 156.378 294.004 163.412 293.825 171.841 L 293.500 187.167 290.234 190.083 C 287.641 192.400 286.032 193.000 282.418 193.000 C 272.501 193.000 270.779 189.446 271.095 169.626 L 271.321 155.500 268.410 155.364 C 266.810 155.289 264.444 155.439 263.153 155.696 "/></g>
<g fill="#F29A1EFE" stroke="#F29A1EFE">
<path d="M 324.183 156.492 C 317.227 160.469 315.525 162.244 315.166 165.897 C 314.694 170.710 315.858 176.000 317.390 176.000 C 318.105 176.000 319.495 176.889 320.479 177.976 C 321.462 179.063 322.578 179.761 322.959 179.526 C 323.714 179.058 334.292 181.547 337.500 182.946 C 338.600 183.426 340.288 184.070 341.250 184.378 C 343.924 185.232 343.639 191.588 340.860 193.075 C 337.767 194.730 327.518 193.778 325.125 191.613 C 322.517 189.253 320.067 188.976 316.733 190.666 C 314.558 191.769 314.164 192.435 314.891 193.784 C 316.660 197.065 320.830 200.172 324.653 201.060 C 338.281 204.222 351.348 199.033 353.039 189.788 C 353.890 185.134 352.507 180.000 350.402 180.000 C 349.631 180.000 349.000 179.662 349.000 179.248 C 349.000 177.834 340.506 174.131 334.570 172.957 C 331.309 172.311 327.959 171.102 327.126 170.269 C 324.915 168.058 325.028 165.094 327.385 163.443 C 330.164 161.496 339.369 161.535 341.000 163.500 C 342.489 165.294 345.955 165.433 349.453 163.839 C 352.174 162.600 352.862 161.000 350.674 161.000 C 349.945 161.000 348.292 159.875 347.000 158.500 C 345.708 157.125 343.856 156.000 342.885 156.000 C 341.913 156.000 340.840 155.550 340.500 155.000 C 340.160 154.450 337.321 154.005 334.191 154.012 C 329.989 154.021 327.371 154.670 324.183 156.492 "/></g>
<g fill="#F29A1EFE" stroke="#F29A1EFE">
<path d="M 201.625 240.125 C 200.519 245.657 200.942 272.071 202.207 276.384 C 202.871 278.648 204.783 281.730 206.457 283.234 C 209.381 285.861 209.931 285.968 220.500 285.978 C 242.204 285.999 245.030 283.432 245.194 263.550 L 245.285 252.500 241.142 252.193 L 237.000 251.885 237.000 262.886 C 237.000 276.743 236.751 277.000 223.327 277.000 C 215.594 277.000 213.934 276.717 213.080 275.250 C 212.519 274.288 212.016 273.950 211.960 274.500 C 211.905 275.050 211.526 274.651 211.119 273.614 C 210.712 272.577 210.525 264.797 210.704 256.325 C 211.074 238.806 210.596 237.000 205.590 237.000 C 202.649 237.000 202.175 237.374 201.625 240.125 "/></g>
<g fill="#FEFEFEFE" stroke="#FEFEFEFE">
<path d="M 220.248 164.502 C 214.065 168.933 212.207 171.500 211.567 176.500 C 210.400 185.609 216.824 193.004 225.898 192.996 C 234.466 192.989 238.932 188.382 240.489 177.943 C 241.017 174.403 240.815 173.092 239.585 172.070 C 238.713 171.347 238.000 170.146 238.000 169.401 C 238.000 167.933 233.761 164.795 231.129 164.313 C 223.753 162.964 222.361 162.989 220.248 164.502 M 227.764 165.883 C 228.719 166.369 230.771 167.363 232.324 168.092 C 235.417 169.543 238.000 174.570 238.000 179.137 C 238.000 181.036 236.825 183.312 234.577 185.765 C 231.595 189.019 230.573 189.500 226.650 189.500 C 214.021 189.500 210.100 174.698 220.913 167.841 C 226.047 164.584 225.511 164.737 227.764 165.883 "/></g>
<g fill="#FEFEFEFE" stroke="#FEFEFEFE">
<path d="M 162.750 259.689 C 161.788 259.941 161.000 260.564 161.000 261.073 C 161.000 261.583 160.330 262.000 159.511 262.000 C 157.860 262.000 155.226 263.984 150.881 268.500 C 147.516 271.998 146.394 274.794 147.794 276.194 C 148.341 276.741 155.537 277.318 163.786 277.478 C 178.269 277.759 178.818 277.696 179.756 275.635 C 181.397 272.031 179.968 266.878 176.197 262.802 C 173.166 259.527 172.112 259.016 168.589 259.116 C 166.340 259.180 163.713 259.438 162.750 259.689 M 173.224 263.506 C 176.889 265.997 179.118 271.382 177.540 273.935 C 176.849 275.053 151.000 275.510 151.000 274.404 C 151.000 271.134 158.244 264.639 164.422 262.369 C 168.902 260.724 169.182 260.760 173.224 263.506 "/></g>
<g fill="#FEFEFEFE" stroke="#FEFEFEFE">
<path d="M 366.306 187.113 C 363.305 188.272 361.472 191.278 361.167 195.538 C 360.563 203.976 370.265 208.366 376.580 202.513 C 378.937 200.329 379.201 199.473 378.750 195.473 C 378.468 192.968 377.480 190.083 376.556 189.062 C 374.732 187.046 369.200 185.994 366.306 187.113 M 374.429 191.571 C 376.477 193.620 376.435 197.861 374.345 200.171 C 372.315 202.415 367.693 202.550 365.571 200.429 C 363.411 198.268 363.524 192.377 365.750 191.080 C 368.371 189.554 372.653 189.796 374.429 191.571 "/></g>
<g fill="#FEFEFEFE" stroke="#FEFEFEFE">
<path d="M 218.659 296.250 C 215.072 299.540 214.576 303.999 217.428 307.318 C 221.795 312.400 230.897 309.901 231.620 303.422 C 232.112 299.003 231.315 297.520 227.456 295.680 C 222.835 293.477 221.595 293.557 218.659 296.250 M 227.551 299.750 C 228.676 302.324 228.117 304.292 225.734 306.148 C 223.831 307.631 223.387 307.644 221.309 306.283 C 218.783 304.628 218.076 299.540 220.250 298.662 C 223.101 297.512 226.814 298.065 227.551 299.750 "/></g>
<g fill="#FEFEFEFE" stroke="#FEFEFEFE">
<path d="M 72.950 274.467 C 70.951 275.554 70.348 276.727 70.162 279.889 C 69.842 285.309 72.486 288.000 78.133 288.000 C 85.502 288.000 88.551 281.045 83.548 275.646 C 80.800 272.681 77.009 272.259 72.950 274.467 M 82.978 281.050 C 83.014 283.583 80.836 285.000 76.908 285.000 C 73.837 285.000 73.115 284.593 72.609 282.579 C 71.715 279.015 72.824 277.109 76.357 276.137 C 78.972 275.417 79.790 275.627 81.228 277.386 C 82.178 278.549 82.966 280.198 82.978 281.050 "/></g>
<g fill="#FEFEFEFE" stroke="#FEFEFEFE">
<path d="M 92.663 174.172 C 90.620 176.782 90.353 177.798 91.155 179.908 C 92.497 183.436 95.408 185.945 97.639 185.496 C 98.662 185.289 100.660 184.879 102.079 184.584 C 104.584 184.063 107.000 180.541 107.000 177.407 C 107.000 174.586 102.309 171.000 98.618 171.000 C 95.906 171.000 94.601 171.695 92.663 174.172 "/></g>
<g fill="#FEFEFEFE" stroke="#FEFEFEFE">
<path d="M 348.000 296.331 C 345.097 297.689 344.235 301.738 345.961 305.907 C 346.919 308.219 347.747 308.665 351.440 308.856 C 355.109 309.046 356.121 308.662 357.895 306.406 C 360.696 302.846 360.549 300.413 357.354 297.452 C 354.495 294.803 351.927 294.495 348.000 296.331 "/></g>
<g fill="#FEFEFEFE" stroke="#FEFEFEFE">
<path d="M 290.070 257.224 C 286.938 258.868 285.798 263.057 287.559 266.451 C 288.300 267.880 288.815 269.159 288.703 269.294 C 288.591 269.429 290.449 269.680 292.830 269.852 C 298.440 270.257 301.000 268.100 301.000 262.967 C 301.000 260.920 300.395 258.742 299.655 258.128 C 297.460 256.307 292.676 255.856 290.070 257.224 "/></g>
<g fill="#F29A1EFE" stroke="#F29A1EFE">
<path d="M 365.750 191.080 C 363.524 192.377 363.411 198.268 365.571 200.429 C 369.271 204.128 376.000 201.105 376.000 195.743 C 376.000 190.878 370.439 188.349 365.750 191.080 "/></g>
<g fill="#F29A1EFE" stroke="#F29A1EFE">
<path d="M 76.357 276.137 C 72.824 277.109 71.715 279.015 72.609 282.579 C 73.115 284.593 73.837 285.000 76.908 285.000 C 82.796 285.000 84.703 281.638 81.228 277.386 C 79.790 275.627 78.972 275.417 76.357 276.137 "/></g>
<g fill="#F29A1EFE" stroke="#F29A1EFE">
<path d="M 220.250 298.662 C 218.076 299.540 218.783 304.628 221.309 306.283 C 223.387 307.644 223.831 307.631 225.734 306.148 C 231.163 301.919 226.831 296.007 220.250 298.662 "/></g>
</svg>
