<svg xmlns="http://www.w3.org/2000/svg" xmlns:xlink="http://www.w3.org/1999/xlink" width="512" zoomAndPan="magnify" viewBox="0 0 384 383.999986" height="512" preserveAspectRatio="xMidYMid meet" version="1.0"><defs><clipPath id="185bb21ceb"><path d="M 72 74.203125 L 312 74.203125 L 312 309.703125 L 72 309.703125 Z M 72 74.203125 " clip-rule="nonzero"/></clipPath></defs><path fill="#ffffff" d="M 294.632812 248.59375 C 257.59375 230.664062 251.6875 202.980469 251.429688 200.929688 C 251.109375 198.441406 250.742188 196.484375 253.488281 193.953125 C 256.128906 191.511719 267.875 184.238281 271.140625 181.972656 C 276.515625 178.199219 278.882812 174.453125 277.140625 169.828125 C 275.925781 166.625 272.945312 165.417969 269.808594 165.417969 C 268.816406 165.429688 267.835938 165.535156 266.871094 165.75 C 260.953125 167.035156 255.214844 170.007812 251.886719 170.808594 C 251.484375 170.902344 251.074219 170.960938 250.660156 170.972656 C 248.894531 170.972656 248.21875 170.183594 248.386719 168.050781 C 248.800781 161.578125 249.683594 148.960938 248.65625 137.171875 C 247.265625 120.953125 242.03125 112.910156 235.832031 105.804688 C 232.824219 102.359375 218.886719 87.554688 191.996094 87.554688 C 165.105469 87.554688 151.195312 102.359375 148.210938 105.769531 C 141.988281 112.875 136.765625 120.902344 135.375 137.125 C 134.363281 148.917969 135.28125 161.527344 135.65625 168.003906 C 135.773438 170.03125 135.152344 170.925781 133.382812 170.925781 C 132.972656 170.914062 132.558594 170.867188 132.15625 170.761719 C 128.84375 169.957031 123.089844 167 117.183594 165.714844 C 116.21875 165.492188 115.226562 165.386719 114.238281 165.386719 C 111.089844 165.386719 108.128906 166.597656 106.90625 169.785156 C 105.160156 174.402344 107.515625 178.164062 112.917969 181.925781 C 116.183594 184.199219 127.914062 191.460938 130.566406 193.914062 C 133.300781 196.4375 132.945312 198.394531 132.628906 200.882812 C 132.367188 202.96875 126.460938 230.652344 89.421875 248.554688 C 87.25 249.605469 83.5625 251.820312 90.070312 255.417969 C 100.292969 261.066406 107.09375 260.464844 112.375 263.871094 C 116.867188 266.761719 114.214844 272.996094 117.46875 275.234375 C 121.488281 278.007812 133.335938 275.046875 148.636719 280.105469 C 161.476562 284.324219 169.269531 296.28125 192.035156 296.28125 C 214.785156 296.28125 222.816406 284.277344 235.429688 280.105469 C 250.707031 275.046875 262.582031 278.007812 266.589844 275.234375 C 269.851562 272.996094 267.199219 266.761719 271.691406 263.871094 C 276.972656 260.464844 283.777344 261.066406 293.996094 255.417969 C 300.492188 251.871094 296.804688 249.644531 294.632812 248.59375 Z M 294.632812 248.59375 " fill-opacity="1" fill-rule="nonzero"/><g clip-path="url(#185bb21ceb)"><path fill="#e5a214" d="M 310.75 246.484375 C 309.085938 241.96875 305.914062 239.539062 302.308594 237.535156 C 301.636719 237.144531 301.011719 236.828125 300.484375 236.582031 C 299.410156 236.027344 298.300781 235.484375 297.21875 234.917969 C 285.96875 228.964844 277.199219 221.441406 271.113281 212.53125 C 269.382812 210.019531 267.886719 207.367188 266.636719 204.585938 C 266.105469 203.097656 266.140625 202.261719 266.507812 201.484375 C 266.882812 200.894531 267.367188 200.386719 267.941406 199.988281 C 269.878906 198.714844 271.871094 197.417969 273.210938 196.542969 C 275.628906 194.988281 277.527344 193.75 278.765625 192.878906 C 283.378906 189.648438 286.605469 186.214844 288.621094 182.386719 C 290.050781 179.710938 290.851562 176.855469 291.027344 173.828125 C 291.203125 170.808594 290.746094 167.871094 289.648438 165.042969 C 286.59375 157.003906 279 152.003906 269.796875 152.003906 C 267.847656 152.003906 265.925781 152.214844 264.019531 152.617188 C 263.511719 152.734375 263.003906 152.839844 262.511719 152.96875 C 262.59375 147.476562 262.472656 141.664062 261.992188 135.960938 C 260.246094 115.871094 253.21875 105.332031 245.886719 96.9375 C 241.160156 91.644531 235.703125 87.246094 229.511719 83.757812 C 218.382812 77.402344 205.757812 74.183594 191.996094 74.183594 C 178.242188 74.183594 165.6875 77.402344 154.542969 83.757812 C 148.34375 87.246094 142.875 91.65625 138.144531 96.960938 C 130.8125 105.367188 123.777344 115.90625 122.042969 135.984375 C 121.546875 141.6875 121.425781 147.523438 121.511719 152.992188 C 121.015625 152.875 120.511719 152.757812 120.003906 152.640625 C 118.105469 152.238281 116.171875 152.027344 114.226562 152.039062 C 105.019531 152.039062 97.414062 157.027344 94.363281 165.066406 C 93.261719 167.898438 92.804688 170.832031 92.984375 173.859375 C 93.15625 176.890625 93.949219 179.746094 95.375 182.433594 C 97.402344 186.265625 100.621094 189.691406 105.242188 192.925781 C 106.453125 193.773438 108.378906 195.011719 110.78125 196.59375 C 112.082031 197.429688 113.980469 198.664062 115.851562 199.902344 C 116.515625 200.328125 117.054688 200.871094 117.46875 201.53125 C 117.871094 202.332031 117.882812 203.191406 117.289062 204.785156 C 116.050781 207.507812 114.589844 210.101562 112.890625 212.566406 C 106.941406 221.265625 98.414062 228.660156 87.535156 234.566406 C 81.78125 237.617188 75.78125 239.65625 73.257812 246.539062 C 71.347656 251.726562 72.597656 257.621094 77.441406 262.597656 C 79.234375 264.472656 81.277344 266.015625 83.550781 267.230469 C 88.289062 269.835938 93.277344 271.828125 98.511719 273.207031 C 99.59375 273.492188 100.597656 273.9375 101.53125 274.566406 C 103.296875 276.109375 103.050781 278.445312 105.394531 281.851562 C 106.585938 283.628906 108.0625 285.128906 109.816406 286.34375 C 114.753906 289.761719 120.308594 289.972656 126.191406 290.195312 C 131.496094 290.398438 137.519531 290.632812 144.394531 292.898438 C 147.246094 293.839844 150.207031 295.65625 153.625 297.789062 C 161.867188 302.847656 173.136719 309.769531 191.984375 309.769531 C 210.847656 309.769531 222.203125 302.8125 230.488281 297.730469 C 233.898438 295.644531 236.832031 293.839844 239.605469 292.921875 C 246.476562 290.644531 252.5 290.417969 257.816406 290.21875 C 263.6875 289.996094 269.242188 289.78125 274.179688 286.367188 C 276.265625 284.914062 277.941406 283.078125 279.214844 280.871094 C 280.910156 277.996094 280.867188 275.976562 282.457031 274.574219 C 283.328125 273.984375 284.269531 273.550781 285.285156 273.28125 C 290.589844 271.890625 295.636719 269.886719 300.445312 267.242188 C 302.875 265.933594 305.011719 264.257812 306.859375 262.222656 L 306.917969 262.148438 C 311.46875 257.28125 312.613281 251.550781 310.75 246.484375 Z M 293.984375 255.5 C 283.761719 261.148438 276.964844 260.535156 271.683594 263.941406 C 267.1875 266.832031 269.839844 273.066406 266.574219 275.320312 C 262.566406 278.085938 250.71875 275.117188 235.417969 280.175781 C 222.789062 284.351562 214.730469 296.351562 192.023438 296.351562 C 169.316406 296.351562 161.441406 284.375 148.613281 280.140625 C 133.335938 275.09375 121.453125 278.054688 117.445312 275.285156 C 114.191406 273.03125 116.832031 266.804688 112.351562 263.90625 C 107.058594 260.511719 100.257812 261.113281 90.035156 255.5 C 83.527344 251.90625 87.21875 249.675781 89.386719 248.628906 C 126.429688 230.695312 132.335938 203.015625 132.605469 200.953125 C 132.910156 198.464844 133.277344 196.507812 130.53125 193.984375 C 127.890625 191.535156 116.144531 184.273438 112.890625 181.996094 C 107.492188 178.238281 105.125 174.472656 106.878906 169.851562 C 108.09375 166.660156 111.078125 165.457031 114.214844 165.457031 C 115.203125 165.457031 116.183594 165.574219 117.148438 165.789062 C 123.066406 167.070312 128.808594 170.03125 132.132812 170.832031 C 132.535156 170.9375 132.933594 170.996094 133.347656 170.996094 C 135.125 170.996094 135.753906 170.101562 135.625 168.070312 C 135.246094 161.601562 134.328125 148.984375 135.351562 137.199219 C 136.757812 120.988281 141.976562 112.949219 148.179688 105.835938 C 151.160156 102.417969 165.179688 87.613281 191.972656 87.613281 C 218.769531 87.613281 232.824219 102.359375 235.808594 105.769531 C 242.019531 112.875 247.253906 120.902344 248.644531 137.125 C 249.660156 148.917969 248.789062 161.542969 248.375 168.003906 C 248.234375 170.136719 248.871094 170.925781 250.636719 170.925781 C 251.0625 170.914062 251.460938 170.867188 251.863281 170.761719 C 255.1875 169.957031 260.929688 167 266.847656 165.714844 C 267.8125 165.492188 268.792969 165.386719 269.796875 165.386719 C 272.945312 165.386719 275.902344 166.597656 277.128906 169.785156 C 278.871094 174.402344 276.515625 178.164062 271.113281 181.925781 C 267.863281 184.199219 256.117188 191.460938 253.464844 193.914062 C 250.730469 196.4375 251.085938 198.394531 251.40625 200.882812 C 251.675781 202.96875 257.570312 230.652344 294.609375 248.554688 C 296.804688 249.644531 300.492188 251.871094 293.984375 255.5 Z M 293.984375 255.5 " fill-opacity="1" fill-rule="nonzero"/></g></svg>