<svg xmlns="http://www.w3.org/2000/svg" xmlns:xlink="http://www.w3.org/1999/xlink" width="512" zoomAndPan="magnify" viewBox="0 0 384 383.999986" height="512" preserveAspectRatio="xMidYMid meet" version="1.0"><defs><clipPath id="c29099d968"><path d="M 51.902344 38.398438 L 332.402344 38.398438 L 332.402344 318.898438 L 51.902344 318.898438 Z M 51.902344 38.398438 " clip-rule="nonzero"/></clipPath></defs><g clip-path="url(#c29099d968)"><path fill="#ffffff" d="M 51.902344 38.398438 L 332.132812 38.398438 L 332.132812 318.632812 L 51.902344 318.632812 Z M 51.902344 38.398438 " fill-opacity="1" fill-rule="nonzero"/></g><path fill="#e5a214" d="M 231.125 100.4375 C 224.167969 95.898438 219.152344 88.652344 217.578125 80.191406 C 217.238281 78.367188 217.050781 76.480469 217.050781 74.554688 L 194.855469 74.554688 L 194.816406 163.507812 C 194.4375 173.46875 186.238281 181.464844 176.191406 181.464844 C 173.070312 181.464844 170.128906 180.6875 167.539062 179.328125 C 161.601562 176.195312 157.539062 169.972656 157.539062 162.816406 C 157.539062 152.527344 165.917969 144.152344 176.203125 144.152344 C 178.128906 144.152344 179.964844 144.464844 181.710938 145.019531 L 181.710938 122.359375 C 179.914062 122.105469 178.078125 121.957031 176.203125 121.957031 C 153.679688 121.957031 135.34375 140.277344 135.34375 162.816406 C 135.34375 176.636719 142.25 188.871094 152.785156 196.269531 C 159.425781 200.921875 167.488281 203.675781 176.203125 203.675781 C 198.726562 203.675781 217.0625 185.351562 217.0625 162.816406 L 217.0625 117.703125 C 225.765625 123.957031 236.429688 127.640625 247.949219 127.640625 L 247.949219 105.441406 C 241.75 105.441406 235.976562 103.59375 231.136719 100.4375 Z M 231.125 100.4375 " fill-opacity="1" fill-rule="nonzero"/><path fill="#e5a214" d="M 87.707031 228.726562 L 123.472656 228.726562 L 120.191406 238.964844 L 110.910156 238.964844 C 110.910156 238.964844 110.910156 276.792969 110.910156 276.792969 L 99.351562 276.792969 L 99.351562 238.964844 L 87.71875 238.988281 L 87.71875 228.738281 Z M 87.707031 228.726562 " fill-opacity="1" fill-rule="nonzero"/><path fill="#e5a214" d="M 182.0625 228.726562 L 218.660156 228.726562 L 215.378906 238.964844 L 205.292969 238.964844 C 205.292969 238.964844 205.292969 276.792969 205.292969 276.792969 L 193.710938 276.792969 L 193.710938 238.964844 L 182.078125 238.988281 L 182.078125 228.738281 Z M 182.0625 228.726562 " fill-opacity="1" fill-rule="nonzero"/><path fill="#e5a214" d="M 125.648438 244.007812 L 137.117188 244.007812 L 137.105469 276.78125 L 125.722656 276.78125 Z M 125.648438 244.007812 " fill-opacity="1" fill-rule="nonzero"/><path fill="#e5a214" d="M 141.667969 228.589844 L 153.125 228.589844 L 153.125 250.972656 L 164.484375 239.832031 L 178.152344 239.832031 C 178.152344 239.832031 163.789062 253.765625 163.789062 253.765625 L 179.875 276.78125 L 167.261719 276.78125 L 156.535156 260.820312 L 153.140625 264.117188 L 153.140625 276.78125 L 141.683594 276.78125 L 141.683594 228.589844 Z M 141.667969 228.589844 " fill-opacity="1" fill-rule="nonzero"/><path fill="#e5a214" d="M 258.136719 228.589844 L 269.59375 228.589844 L 269.59375 250.972656 L 280.949219 239.832031 L 294.621094 239.832031 C 294.621094 239.832031 280.257812 253.765625 280.257812 253.765625 L 296.34375 276.78125 L 283.730469 276.78125 L 273 260.820312 L 269.605469 264.117188 L 269.605469 276.78125 L 258.148438 276.78125 L 258.148438 228.589844 Z M 258.136719 228.589844 " fill-opacity="1" fill-rule="nonzero"/><path fill="#e5a214" d="M 137.15625 234.5 C 137.15625 234.878906 137.117188 235.253906 137.042969 235.625 C 136.96875 235.996094 136.859375 236.359375 136.714844 236.707031 C 136.570312 237.058594 136.390625 237.390625 136.183594 237.707031 C 135.972656 238.019531 135.730469 238.3125 135.464844 238.582031 C 135.195312 238.847656 134.90625 239.089844 134.589844 239.296875 C 134.273438 239.507812 133.941406 239.6875 133.589844 239.832031 C 133.242188 239.976562 132.878906 240.085938 132.507812 240.160156 C 132.136719 240.234375 131.761719 240.269531 131.382812 240.269531 C 131.003906 240.269531 130.628906 240.234375 130.257812 240.160156 C 129.882812 240.085938 129.523438 239.976562 129.171875 239.832031 C 128.824219 239.6875 128.492188 239.507812 128.175781 239.296875 C 127.859375 239.089844 127.570312 238.847656 127.300781 238.582031 C 127.03125 238.3125 126.792969 238.019531 126.582031 237.707031 C 126.371094 237.390625 126.195312 237.058594 126.050781 236.707031 C 125.902344 236.359375 125.792969 235.996094 125.722656 235.625 C 125.648438 235.253906 125.609375 234.878906 125.609375 234.5 C 125.609375 234.121094 125.648438 233.746094 125.722656 233.371094 C 125.792969 233 125.902344 232.640625 126.050781 232.289062 C 126.195312 231.941406 126.371094 231.605469 126.582031 231.292969 C 126.792969 230.976562 127.03125 230.683594 127.300781 230.417969 C 127.570312 230.148438 127.859375 229.910156 128.175781 229.699219 C 128.492188 229.488281 128.824219 229.3125 129.171875 229.164062 C 129.523438 229.019531 129.882812 228.910156 130.257812 228.835938 C 130.628906 228.761719 131.003906 228.726562 131.382812 228.726562 C 131.761719 228.726562 132.136719 228.761719 132.507812 228.835938 C 132.878906 228.910156 133.242188 229.019531 133.589844 229.164062 C 133.941406 229.3125 134.273438 229.488281 134.589844 229.699219 C 134.90625 229.910156 135.195312 230.148438 135.464844 230.417969 C 135.730469 230.683594 135.972656 230.976562 136.183594 231.292969 C 136.390625 231.605469 136.570312 231.941406 136.714844 232.289062 C 136.859375 232.640625 136.96875 233 137.042969 233.371094 C 137.117188 233.746094 137.15625 234.121094 137.15625 234.5 Z M 137.15625 234.5 " fill-opacity="1" fill-rule="nonzero"/><path fill="#e5a214" d="M 233.851562 237.542969 C 223.011719 237.542969 214.234375 246.320312 214.234375 257.160156 C 214.234375 268 223.011719 276.78125 233.851562 276.78125 C 244.691406 276.78125 253.472656 268 253.472656 257.160156 C 253.472656 246.320312 244.691406 237.542969 233.851562 237.542969 Z M 233.851562 266.707031 C 228.582031 266.707031 224.320312 262.429688 224.320312 257.171875 C 224.320312 251.917969 228.59375 247.640625 233.851562 247.640625 C 239.109375 247.640625 243.386719 251.917969 243.386719 257.171875 C 243.386719 262.429688 239.109375 266.707031 233.851562 266.707031 Z M 233.851562 266.707031 " fill-opacity="1" fill-rule="nonzero"/></svg>
