<?xml version="1.0" encoding="utf-8"?>
<!DOCTYPE svg PUBLIC "-//W3C//DTD SVG 20010904//EN" "http://www.w3.org/TR/2001/REC-SVG-20010904/DTD/svg10.dtd">
<svg version="1.0" xmlns="http://www.w3.org/2000/svg" width="502pt" height="502pt" viewBox="0 0 502 502" style="" preserveAspectRatio="xMidYMid meet">
<g fill="#226CAFFF" stroke="#226CAFFF">
<path d="M 133.692 233.700 L 126.141 242.500 151.468 243.000 C 174.563 243.456 176.980 243.668 178.897 245.405 C 180.095 246.490 181.000 248.534 181.000 250.155 L 181.000 253.000 147.000 253.000 C 128.300 253.000 113.003 252.663 113.008 252.250 C 113.012 251.838 113.908 248.575 115.000 245.000 C 116.092 241.425 116.988 238.331 116.992 238.124 C 116.997 237.917 110.526 237.943 102.613 238.181 C 89.709 238.569 87.724 238.872 83.365 241.115 C 79.430 243.140 77.994 244.651 75.817 249.058 C 74.338 252.051 72.844 255.513 72.497 256.750 L 71.865 259.000 85.433 259.000 C 92.895 259.000 98.998 259.338 98.996 259.750 C 98.986 261.721 94.773 267.066 92.165 268.414 C 89.506 269.789 88.000 271.806 88.000 273.992 C 88.000 275.007 97.560 272.850 101.000 271.058 C 105.149 268.897 108.865 264.889 109.531 261.859 L 110.159 259.000 175.036 259.000 L 239.913 259.000 242.494 250.750 C 243.913 246.213 245.313 241.713 245.605 240.750 C 246.069 239.218 245.383 239.000 240.106 239.000 L 234.077 239.000 232.985 243.250 C 230.450 253.110 231.106 252.468 223.222 252.793 L 216.104 253.086 218.052 246.055 C 219.123 242.189 220.000 238.795 220.000 238.513 C 220.000 238.231 217.348 238.000 214.107 238.000 L 208.213 238.000 206.271 245.250 L 204.328 252.500 198.282 252.795 L 192.236 253.089 192.720 248.792 C 193.110 245.331 192.802 244.131 191.137 242.624 C 187.428 239.267 178.725 238.032 158.663 238.016 L 139.827 238.000 145.057 231.750 L 150.288 225.500 145.766 225.200 L 141.244 224.900 133.692 233.700 M 102.334 248.250 C 101.332 253.539 100.372 254.115 93.093 253.792 C 86.805 253.514 86.500 253.384 86.500 251.000 C 86.500 247.717 91.803 245.004 98.225 245.002 L 102.950 245.000 102.334 248.250 "/></g>
<g fill="#CBDBE6EE" stroke="#CBDBE6EE">
<path d="M 261.153 224.750 C 259.442 228.013 253.000 249.764 253.000 252.279 C 253.000 253.654 253.860 255.841 254.911 257.139 L 256.821 259.500 290.247 259.799 C 318.144 260.049 323.868 259.864 324.850 258.681 C 325.497 257.901 327.153 253.491 328.530 248.881 C 329.907 244.272 331.282 239.713 331.584 238.750 C 332.070 237.206 331.368 237.000 325.626 237.000 C 318.278 237.000 318.351 236.938 315.500 245.497 C 313.741 250.776 313.157 251.539 310.659 251.825 C 308.310 252.094 307.910 251.834 308.349 250.325 C 308.642 249.321 309.383 246.559 309.996 244.187 C 310.609 241.816 311.359 239.228 311.662 238.437 C 312.110 237.270 310.872 237.000 305.076 237.000 C 300.244 237.000 297.809 237.404 297.539 238.250 C 297.320 238.938 296.322 242.200 295.321 245.500 C 293.723 250.765 293.163 251.539 290.750 251.816 C 287.474 252.193 287.484 252.298 289.942 243.704 L 291.883 236.915 284.722 237.207 L 277.560 237.500 275.469 244.500 C 273.491 251.121 273.204 251.517 270.189 251.813 C 268.435 251.986 267.000 251.724 267.000 251.233 C 267.000 250.741 268.800 244.336 271.000 237.000 C 273.200 229.664 275.000 223.512 275.000 223.331 C 275.000 223.149 272.091 223.000 268.535 223.000 C 263.394 223.000 261.882 223.358 261.153 224.750 "/></g>
<g fill="#226CAFFF" stroke="#226CAFFF">
<path d="M 261.705 225.703 C 260.486 227.765 254.002 250.056 254.015 252.140 C 254.057 258.603 256.279 259.000 292.393 259.000 L 323.656 259.000 326.710 249.000 L 329.764 239.000 324.067 239.000 L 318.370 239.000 316.434 245.750 L 314.498 252.500 310.162 252.812 C 306.376 253.084 305.893 252.894 306.353 251.312 C 306.644 250.315 307.383 247.559 307.996 245.187 C 308.609 242.816 309.368 240.204 309.683 239.384 C 310.157 238.147 309.256 237.944 304.407 238.196 L 298.558 238.500 296.467 245.500 L 294.376 252.500 290.188 252.807 C 287.885 252.977 286.000 252.750 286.000 252.304 C 286.000 251.858 286.868 248.458 287.929 244.747 L 289.859 238.000 284.122 238.000 L 278.385 238.000 275.943 245.750 C 273.655 253.010 273.310 253.516 270.500 253.761 C 264.379 254.292 264.274 253.411 268.720 238.834 L 272.786 225.500 267.481 225.203 C 264.564 225.039 261.964 225.264 261.705 225.703 "/></g>
<g fill="#CBDBE6EE" stroke="#CBDBE6EE">
<path d="M 293.951 270.294 C 284.206 273.067 277.497 279.192 274.823 287.755 C 273.837 290.915 273.023 293.845 273.015 294.267 C 273.007 294.690 284.138 294.915 297.750 294.767 L 322.500 294.500 324.350 290.713 C 330.888 277.329 325.285 270.335 307.308 269.439 C 301.792 269.164 296.800 269.483 293.951 270.294 M 311.795 279.245 C 312.550 279.871 312.974 281.842 312.801 283.914 L 312.500 287.500 300.250 287.781 C 288.624 288.047 288.000 287.961 288.000 286.087 C 288.000 285.000 289.084 282.851 290.410 281.310 C 292.421 278.972 293.868 278.406 299.160 277.889 C 306.151 277.206 309.812 277.599 311.795 279.245 "/></g>
<g fill="#226CAFFF" stroke="#226CAFFF">
<path d="M 291.205 272.831 C 283.189 275.695 278.873 279.683 276.309 286.595 C 275.105 289.843 274.092 292.838 274.059 293.250 C 274.027 293.663 284.744 294.000 297.875 294.000 L 321.749 294.000 323.997 287.011 C 326.103 280.459 326.142 279.865 324.613 277.531 C 321.780 273.208 317.395 271.700 306.500 271.303 C 298.546 271.014 295.417 271.326 291.205 272.831 M 311.795 279.245 C 312.550 279.871 312.974 281.842 312.801 283.914 L 312.500 287.500 300.250 287.781 C 288.624 288.047 288.000 287.961 288.000 286.087 C 288.000 285.000 289.084 282.851 290.410 281.310 C 292.421 278.972 293.868 278.406 299.160 277.889 C 306.151 277.206 309.812 277.599 311.795 279.245 "/></g>
<g fill="#CBDBE6EE" stroke="#CBDBE6EE">
<path d="M 105.081 281.708 L 90.986 294.500 116.993 294.767 C 138.056 294.983 143.000 294.781 143.000 293.708 C 143.000 292.979 140.779 287.234 138.065 280.941 L 133.130 269.500 126.153 269.208 L 119.177 268.916 105.081 281.708 M 136.620 282.250 L 141.835 294.000 117.395 294.000 L 92.954 294.000 106.090 281.955 L 119.226 269.910 125.315 270.205 L 131.405 270.500 136.620 282.250 "/></g>
<g fill="#CBDBE6EE" stroke="#CBDBE6EE">
<path d="M 399.068 208.879 C 397.071 209.437 396.219 210.929 394.305 217.221 C 391.568 226.222 387.479 231.219 381.488 232.882 C 375.893 234.435 373.090 234.284 365.882 232.040 C 362.419 230.963 359.526 230.175 359.452 230.290 C 358.566 231.678 356.940 240.094 357.411 240.855 C 357.755 241.413 361.614 243.248 365.986 244.934 C 379.358 250.091 389.294 248.985 395.759 241.621 C 401.668 234.892 403.868 228.644 405.572 213.750 C 406.211 208.167 406.162 208.003 403.865 208.100 C 402.564 208.155 400.406 208.505 399.068 208.879 M 403.512 216.733 C 402.614 225.119 399.728 234.634 396.760 238.995 C 392.810 244.799 389.675 246.427 381.671 246.831 C 375.429 247.146 373.324 246.764 366.222 244.025 C 361.700 242.281 358.000 240.279 358.000 239.577 C 358.000 238.089 360.036 232.000 360.533 232.000 C 360.718 232.000 362.137 232.482 363.685 233.072 C 378.974 238.893 390.249 233.646 394.916 218.537 C 397.198 211.148 398.102 210.040 401.866 210.015 C 404.193 210.000 404.221 210.113 403.512 216.733 "/></g>
<g fill="#226CAFFF" stroke="#226CAFFF">
<path d="M 106.090 281.955 L 92.954 294.000 117.395 294.000 L 141.835 294.000 136.620 282.250 L 131.405 270.500 125.315 270.205 L 119.226 269.910 106.090 281.955 M 125.513 282.624 C 126.881 285.718 128.000 288.418 128.000 288.624 C 128.000 288.831 123.950 289.000 119.000 289.000 C 114.050 289.000 110.000 288.755 110.000 288.457 C 110.000 287.662 121.363 277.079 122.263 277.036 C 122.682 277.016 124.145 279.531 125.513 282.624 "/></g>
<g fill="#226CAFFF" stroke="#226CAFFF">
<path d="M 438.500 248.655 C 425.525 251.419 417.508 256.253 414.050 263.396 C 410.346 271.048 411.770 280.445 418.008 289.511 C 420.874 293.677 421.412 294.000 425.478 294.000 L 429.860 294.000 427.328 287.770 C 424.244 280.180 423.848 271.936 426.340 267.230 C 428.712 262.752 435.320 258.197 442.234 256.275 C 447.975 254.679 448.000 254.655 448.000 250.836 C 448.000 246.487 448.324 246.561 438.500 248.655 "/></g>
<g fill="#226CAFFF" stroke="#226CAFFF">
<path d="M 398.283 210.804 C 397.613 211.230 396.098 214.709 394.916 218.537 C 390.249 233.646 378.974 238.893 363.685 233.072 C 362.137 232.482 360.718 232.000 360.533 232.000 C 360.036 232.000 358.000 238.089 358.000 239.577 C 358.000 240.279 361.700 242.281 366.222 244.025 C 373.324 246.764 375.429 247.146 381.671 246.831 C 389.675 246.427 392.810 244.799 396.760 238.995 C 399.728 234.634 402.614 225.119 403.512 216.733 C 404.221 210.113 404.193 210.000 401.866 210.015 C 400.565 210.024 398.952 210.379 398.283 210.804 "/></g>
<g fill="#226CAFFF" stroke="#226CAFFF">
<path d="M 409.450 215.250 C 408.554 218.138 407.580 224.575 407.285 229.556 C 406.661 240.073 407.995 243.927 412.974 245.989 C 417.960 248.054 429.219 246.778 438.751 243.066 C 446.675 239.981 446.976 239.748 446.362 237.177 C 446.011 235.705 445.570 234.221 445.382 233.879 C 445.195 233.538 442.220 233.916 438.771 234.719 C 422.856 238.427 416.218 232.690 417.973 216.745 C 418.644 210.651 418.208 210.000 413.457 210.000 C 411.460 210.000 410.816 210.844 409.450 215.250 "/></g>
<g fill="#226CAFFF" stroke="#226CAFFF">
<path d="M 354.341 251.016 L 353.286 254.970 358.493 257.909 C 366.742 262.564 368.656 268.829 364.385 277.190 C 363.629 278.669 360.758 282.856 358.005 286.493 C 355.252 290.130 353.000 293.307 353.000 293.553 C 353.000 293.799 354.851 294.000 357.113 294.000 C 360.892 294.000 361.825 293.401 368.601 286.625 C 386.462 268.764 384.825 255.454 364.000 249.226 C 355.547 246.698 355.491 246.709 354.341 251.016 "/></g>
<g fill="#CBDBE6EE" stroke="#CBDBE6EE">
<path d="M 384.203 278.016 C 380.740 280.333 375.669 284.989 372.935 288.364 L 367.963 294.500 373.527 294.801 C 377.939 295.040 380.224 294.548 384.566 292.424 C 390.796 289.376 395.114 289.521 399.914 292.939 C 402.090 294.488 404.350 295.000 409.013 295.000 L 415.217 295.000 414.558 292.250 C 413.520 287.922 408.849 280.976 404.760 277.680 C 401.952 275.417 399.709 274.559 395.760 274.235 C 390.909 273.837 390.010 274.132 384.203 278.016 M 403.102 278.284 C 406.410 280.506 413.000 290.109 413.000 292.706 C 413.000 294.925 403.310 294.357 399.914 291.939 C 395.140 288.539 390.792 288.378 384.671 291.373 C 378.079 294.598 369.305 295.156 370.876 292.250 C 372.467 289.306 382.617 279.752 386.159 277.864 C 391.056 275.254 398.883 275.448 403.102 278.284 "/></g>
<g fill="#226CAFFF" stroke="#226CAFFF">
<path d="M 152.058 280.969 C 150.355 286.452 148.697 291.627 148.374 292.469 C 147.886 293.739 148.808 294.000 153.774 294.000 L 159.763 294.000 160.863 289.629 L 161.964 285.258 172.829 284.811 C 186.305 284.255 190.500 282.395 190.500 276.973 C 190.500 271.742 188.098 271.032 170.328 271.015 L 155.155 271.000 152.058 280.969 M 180.000 276.893 C 180.000 279.400 178.128 280.000 170.311 280.000 C 164.772 280.000 163.878 279.761 164.393 278.418 C 164.727 277.548 165.000 276.423 165.000 275.918 C 165.000 275.413 168.375 275.000 172.500 275.000 C 179.192 275.000 180.000 275.204 180.000 276.893 "/></g>
<g fill="#226CAFFF" stroke="#226CAFFF">
<path d="M 66.836 270.944 C 61.942 271.897 58.000 274.599 58.000 277.000 C 58.000 279.512 61.217 281.564 67.500 283.060 C 73.302 284.441 77.320 286.673 76.473 288.044 C 76.148 288.570 71.007 289.000 65.048 289.000 C 54.098 289.000 53.000 289.372 53.000 293.082 C 53.000 293.605 60.673 294.000 70.842 294.000 L 88.683 294.000 89.922 289.866 C 91.520 284.533 90.433 283.375 82.471 281.930 C 71.605 279.958 68.685 275.912 77.469 275.000 C 81.303 274.602 82.451 274.042 83.109 272.250 C 83.917 270.052 83.782 270.003 77.218 270.115 C 73.523 270.178 68.851 270.551 66.836 270.944 "/></g>
<g fill="#226CAFFF" stroke="#226CAFFF">
<path d="M 386.159 277.864 C 382.617 279.752 372.467 289.306 370.876 292.250 C 369.305 295.156 378.079 294.598 384.671 291.373 C 390.792 288.378 395.140 288.539 399.914 291.939 C 403.310 294.357 413.000 294.925 413.000 292.706 C 413.000 290.109 406.410 280.506 403.102 278.284 C 398.883 275.448 391.056 275.254 386.159 277.864 "/></g>
<g fill="#CBDBE6EE" stroke="#CBDBE6EE">
<path d="M 138.702 226.703 C 136.795 228.791 132.704 233.425 129.610 237.000 L 123.984 243.500 150.340 244.000 C 178.366 244.532 180.441 244.913 179.798 249.412 C 179.504 251.474 179.091 251.503 147.250 251.764 C 129.513 251.909 115.000 251.683 115.000 251.261 C 115.000 250.839 115.868 247.458 116.929 243.747 L 118.859 237.000 103.125 237.000 C 87.506 237.000 87.359 237.021 82.849 239.881 C 80.350 241.466 77.390 244.053 76.271 245.631 C 74.368 248.315 71.000 256.879 71.000 259.035 C 71.000 259.607 76.502 260.000 84.526 260.000 L 98.051 260.000 96.616 262.750 C 95.826 264.263 93.629 266.324 91.733 267.330 C 89.407 268.565 87.945 270.273 87.237 272.580 C 86.659 274.461 86.539 276.000 86.969 276.000 C 87.398 276.000 88.016 274.669 88.341 273.043 C 88.733 271.086 89.973 269.548 92.011 268.495 C 94.741 267.082 98.986 261.769 98.996 259.750 C 98.998 259.338 92.895 259.000 85.433 259.000 L 71.865 259.000 72.497 256.750 C 72.844 255.513 74.338 252.051 75.817 249.058 C 77.994 244.651 79.430 243.140 83.365 241.115 C 87.724 238.872 89.709 238.569 102.613 238.181 C 110.526 237.943 116.997 237.917 116.992 238.124 C 116.988 238.331 116.092 241.425 115.000 245.000 C 113.908 248.575 113.012 251.838 113.008 252.250 C 113.003 252.663 128.300 253.000 147.000 253.000 L 181.000 253.000 181.000 250.155 C 181.000 248.534 180.095 246.490 178.897 245.405 C 176.980 243.668 174.563 243.456 151.468 243.000 L 126.141 242.500 133.692 233.700 L 141.244 224.900 145.766 225.200 L 150.288 225.500 145.057 231.750 L 139.827 238.000 158.663 238.016 C 178.725 238.032 187.428 239.267 191.137 242.624 C 192.796 244.126 193.110 245.334 192.725 248.747 L 192.246 253.000 198.064 253.000 C 204.483 253.000 204.507 252.984 205.374 248.000 L 205.982 244.500 204.657 248.000 C 203.439 251.217 202.962 251.524 198.754 251.801 L 194.177 252.102 194.696 248.231 C 195.155 244.811 194.848 244.050 192.077 241.718 C 187.207 237.621 182.923 236.825 162.750 236.273 C 152.438 235.990 144.000 235.473 144.000 235.123 C 144.000 234.772 146.031 232.014 148.513 228.993 L 153.025 223.500 147.597 223.203 C 142.431 222.920 142.000 223.089 138.702 226.703 "/></g>
<g fill="#226CAFFF" stroke="#226CAFFF">
<path d="M 253.500 272.399 C 243.530 275.552 239.885 278.978 237.150 287.767 L 235.210 294.000 251.444 294.000 L 267.679 294.000 268.839 291.453 C 269.478 290.052 270.000 288.702 270.000 288.453 C 270.000 288.204 265.226 288.000 259.392 288.000 L 248.783 288.000 249.452 285.250 C 249.819 283.738 251.410 281.192 252.986 279.593 C 255.554 276.989 256.768 276.607 264.676 275.915 C 269.529 275.490 273.785 275.110 274.133 275.071 C 274.482 275.032 275.002 274.100 275.290 273.000 C 275.786 271.104 275.336 271.003 266.656 271.067 C 261.620 271.104 255.700 271.703 253.500 272.399 "/></g>
<g fill="#226CAFFF" stroke="#226CAFFF">
<path d="M 197.975 272.565 C 197.439 273.976 197.000 275.326 197.000 275.565 C 197.000 275.804 199.925 276.000 203.500 276.000 C 207.075 276.000 210.000 276.417 210.000 276.928 C 210.000 277.438 208.715 281.488 207.143 285.928 L 204.287 294.000 209.926 294.000 L 215.565 294.000 219.283 282.705 C 221.327 276.493 223.000 271.093 223.000 270.705 C 223.000 270.317 217.589 270.000 210.975 270.000 C 198.988 270.000 198.947 270.008 197.975 272.565 "/></g>
<g fill="#CBDBE6EE" stroke="#CBDBE6EE">
<path d="M 233.345 238.543 C 233.019 239.392 233.034 240.367 233.376 240.710 C 233.719 241.053 234.000 240.808 234.000 240.167 C 234.000 239.406 236.111 239.000 240.067 239.000 C 245.381 239.000 246.069 239.217 245.605 240.750 C 245.313 241.713 243.913 246.213 242.494 250.750 L 239.913 259.000 175.036 259.000 L 110.159 259.000 109.531 261.859 C 108.419 266.922 102.430 271.339 93.500 273.685 L 88.500 274.998 92.855 274.470 C 100.214 273.579 107.455 268.801 110.615 262.750 L 112.051 260.000 176.357 260.000 L 240.662 260.000 241.759 257.750 C 243.224 254.742 248.000 239.819 248.000 238.247 C 248.000 236.256 234.115 236.537 233.345 238.543 "/></g>
<g fill="#CBDBE6EE" stroke="#CBDBE6EE">
<path d="M 62.359 270.923 C 60.632 271.976 58.917 273.325 58.549 273.921 C 58.181 274.516 59.466 274.068 61.405 272.924 C 64.036 271.371 67.354 270.699 74.487 270.274 L 84.045 269.703 83.164 272.102 C 82.444 274.062 81.404 274.591 77.469 275.000 C 68.685 275.912 71.605 279.958 82.471 281.930 C 90.433 283.375 91.520 284.533 89.922 289.866 L 88.683 294.000 70.842 294.000 C 60.673 294.000 53.000 293.605 53.000 293.082 C 53.000 289.372 54.098 289.000 65.048 289.000 C 71.007 289.000 76.148 288.570 76.473 288.044 C 77.320 286.673 73.302 284.441 67.500 283.060 C 64.750 282.405 61.375 281.145 60.000 280.260 C 57.675 278.764 57.596 278.768 58.866 280.318 C 59.617 281.234 63.442 283.000 67.366 284.242 L 74.500 286.500 64.212 286.785 C 54.240 287.062 53.894 287.149 52.962 289.601 C 50.837 295.188 50.421 295.067 70.737 294.772 L 89.475 294.500 90.862 291.603 C 92.793 287.573 92.595 283.924 90.375 282.610 C 89.344 281.999 85.350 280.825 81.500 280.000 C 73.604 278.308 72.409 276.651 78.754 276.192 C 82.283 275.937 83.263 275.392 84.504 272.992 C 85.327 271.401 86.000 269.852 86.000 269.550 C 86.000 269.247 81.388 269.002 75.750 269.004 C 67.416 269.007 64.913 269.365 62.359 270.923 "/></g>
<g fill="#CBDBE6EE" stroke="#CBDBE6EE">
<path d="M 442.226 246.207 C 423.858 248.663 410.931 259.525 411.045 272.407 C 411.070 275.208 411.752 278.850 412.560 280.500 C 413.369 282.150 413.736 282.600 413.376 281.500 C 413.016 280.400 412.507 276.938 412.245 273.806 C 411.065 259.729 421.052 251.537 444.250 247.553 L 448.000 246.909 448.000 250.791 C 448.000 254.665 447.990 254.675 442.234 256.275 C 435.320 258.197 428.712 262.752 426.340 267.230 C 423.848 271.936 424.244 280.180 427.328 287.770 L 429.860 294.000 425.444 294.000 C 421.399 294.000 420.797 293.658 418.264 289.929 C 416.744 287.689 415.648 286.452 415.829 287.179 C 416.009 287.905 417.270 289.963 418.630 291.750 C 420.812 294.619 421.662 295.000 425.884 295.000 C 428.515 295.000 430.926 294.741 431.243 294.424 C 431.560 294.107 430.736 291.480 429.412 288.588 C 423.445 275.555 425.877 264.804 435.914 259.839 C 438.892 258.366 442.941 256.858 444.912 256.489 C 446.883 256.119 448.827 255.295 449.232 254.658 C 450.200 253.138 450.214 246.225 449.250 245.743 C 448.838 245.537 445.677 245.745 442.226 246.207 "/></g>
<g fill="#CBDBE6EE" stroke="#CBDBE6EE">
<path d="M 354.747 246.636 C 354.466 247.111 353.974 249.075 353.654 251.000 L 353.073 254.500 354.206 251.000 C 354.829 249.075 355.409 247.392 355.494 247.259 C 355.932 246.576 367.692 250.317 372.053 252.527 C 384.981 259.078 383.723 271.503 368.601 286.625 C 361.825 293.401 360.892 294.000 357.113 294.000 C 354.851 294.000 353.000 293.799 353.000 293.553 C 353.000 293.307 355.252 290.130 358.005 286.493 C 360.758 282.856 363.629 278.669 364.385 277.190 C 368.628 268.885 366.745 262.616 358.607 257.948 C 355.798 256.337 353.050 255.035 352.500 255.056 C 351.950 255.076 353.525 256.153 356.000 257.449 C 368.840 264.171 368.693 272.250 355.431 288.532 C 352.994 291.524 351.000 294.203 351.000 294.486 C 351.000 294.769 353.350 295.000 356.222 295.000 C 361.442 295.000 361.448 294.997 369.542 286.750 C 383.730 272.294 386.165 263.165 378.009 255.009 C 372.787 249.787 356.379 243.881 354.747 246.636 "/></g>
<g fill="#CBDBE6EE" stroke="#CBDBE6EE">
<path d="M 155.250 269.618 C 154.563 269.920 154.036 270.917 154.079 271.833 C 154.128 272.873 154.348 273.030 154.662 272.250 C 155.035 271.326 159.124 271.004 170.333 271.015 C 188.097 271.032 190.500 271.742 190.500 276.973 C 190.500 282.395 186.305 284.255 172.829 284.811 L 161.964 285.258 160.863 289.629 L 159.763 294.000 153.881 294.000 C 150.647 294.000 148.000 293.854 148.000 293.675 C 148.000 293.496 149.125 290.043 150.500 286.000 C 151.875 281.957 152.966 278.166 152.925 277.575 C 152.845 276.438 147.000 292.844 147.000 294.205 C 147.000 295.546 159.655 295.127 160.743 293.750 C 161.287 293.063 162.165 291.150 162.696 289.500 L 163.660 286.500 173.580 285.858 C 185.027 285.118 187.904 284.209 190.913 280.383 C 193.650 276.904 193.282 274.283 189.679 271.600 C 187.140 269.710 185.344 269.478 171.679 269.284 C 163.331 269.166 155.938 269.316 155.250 269.618 "/></g>
<g fill="#CBDBE6EE" stroke="#CBDBE6EE">
<path d="M 90.000 246.752 C 87.400 248.051 86.500 249.143 86.500 251.000 C 86.500 253.384 86.805 253.514 93.093 253.792 C 100.372 254.115 101.332 253.539 102.334 248.250 L 102.950 245.000 98.225 245.002 C 95.626 245.002 91.925 245.790 90.000 246.752 M 101.095 248.750 C 100.399 251.364 100.030 251.515 93.621 251.797 C 87.041 252.087 86.906 252.044 88.005 249.991 C 89.425 247.337 92.358 246.144 97.664 246.063 C 101.726 246.002 101.809 246.067 101.095 248.750 "/></g>
<g fill="#CBDBE6EE" stroke="#CBDBE6EE">
<path d="M 410.021 210.444 C 409.460 211.922 409.036 213.663 409.079 214.315 C 409.122 214.967 409.610 214.263 410.162 212.750 C 410.866 210.822 411.865 210.000 413.502 210.000 C 418.204 210.000 418.643 210.662 417.973 216.745 C 416.218 232.690 422.856 238.427 438.771 234.719 C 442.220 233.916 445.195 233.538 445.382 233.879 C 445.570 234.221 446.011 235.704 446.362 237.176 C 446.972 239.731 446.650 239.993 439.250 242.976 C 434.988 244.694 432.753 245.840 434.284 245.522 C 435.815 245.205 439.527 243.857 442.534 242.528 C 448.301 239.977 448.966 238.670 447.054 233.641 C 446.110 231.159 446.093 231.156 440.804 232.564 C 433.833 234.420 426.002 234.390 423.299 232.497 C 419.954 230.154 418.737 224.981 419.534 216.482 C 420.122 210.202 419.995 209.000 418.742 209.000 C 417.922 209.000 415.853 208.721 414.146 208.379 C 411.436 207.837 410.913 208.099 410.021 210.444 "/></g>
<g fill="#CBDBE6EE" stroke="#CBDBE6EE">
<path d="M 256.500 276.954 C 253.582 278.161 250.250 282.091 249.466 285.250 L 248.783 288.000 259.392 288.000 C 265.226 288.000 270.000 288.204 270.000 288.453 C 270.000 288.702 269.478 290.052 268.839 291.453 L 267.679 294.000 251.384 294.000 L 235.089 294.000 236.544 289.874 C 237.345 287.605 237.968 285.243 237.930 284.624 C 237.864 283.574 236.199 287.608 234.575 292.750 L 233.865 295.000 251.319 295.000 L 268.772 295.000 270.482 291.396 C 271.584 289.074 271.848 287.448 271.225 286.825 C 270.687 286.287 265.972 286.000 260.626 286.178 C 255.329 286.355 250.997 286.192 250.998 285.815 C 251.005 283.626 253.222 279.943 255.202 278.829 C 256.466 278.119 260.425 277.262 264.000 276.926 L 270.500 276.315 264.500 276.221 C 261.200 276.169 257.600 276.499 256.500 276.954 "/></g>
<g fill="#CBDBE6EE" stroke="#CBDBE6EE">
<path d="M 115.750 282.493 C 112.588 285.474 110.000 288.158 110.000 288.457 C 110.000 288.755 114.050 289.000 119.000 289.000 C 123.950 289.000 128.000 288.831 128.000 288.624 C 128.000 287.337 122.885 277.007 122.263 277.036 C 121.843 277.057 118.913 279.512 115.750 282.493 M 124.000 283.000 L 126.041 287.000 119.817 287.000 L 113.594 287.000 117.500 283.000 C 119.648 280.800 121.530 279.000 121.683 279.000 C 121.835 279.000 122.878 280.800 124.000 283.000 "/></g>
<g fill="#CBDBE6EE" stroke="#CBDBE6EE">
<path d="M 197.998 269.750 C 197.997 270.163 203.622 270.362 210.498 270.193 C 217.374 270.024 223.000 270.229 223.000 270.648 C 223.000 271.067 221.333 276.474 219.296 282.664 L 215.592 293.918 209.046 294.263 L 202.500 294.608 209.667 294.804 L 216.835 295.000 218.403 290.750 C 220.376 285.401 224.970 270.750 224.987 269.750 C 224.994 269.338 218.925 269.000 211.500 269.000 C 204.075 269.000 197.999 269.338 197.998 269.750 "/></g>
<g fill="#CBDBE6EE" stroke="#CBDBE6EE">
<path d="M 308.000 278.324 C 310.846 279.415 311.559 280.258 311.813 282.833 L 312.127 286.000 300.996 286.000 C 289.918 286.000 289.868 285.989 290.545 283.750 C 291.618 280.198 292.708 279.557 298.791 278.906 L 304.500 278.294 299.173 278.147 C 294.518 278.019 293.478 278.368 290.923 280.923 C 289.315 282.531 288.000 284.795 288.000 285.954 C 288.000 287.998 288.369 288.053 300.250 287.781 L 312.500 287.500 312.801 283.914 C 313.138 279.883 311.936 278.446 307.494 277.571 C 304.786 277.038 304.835 277.110 308.000 278.324 "/></g>
<g fill="#CBDBE6EE" stroke="#CBDBE6EE">
<path d="M 255.734 270.088 C 248.523 271.787 238.000 278.922 238.000 282.112 C 238.000 282.639 239.347 281.536 240.993 279.661 C 245.889 274.085 252.762 271.680 265.185 271.198 C 275.563 270.795 275.854 270.842 275.333 272.835 C 275.038 273.964 273.829 275.077 272.648 275.308 L 270.500 275.728 272.628 275.864 C 274.980 276.014 276.402 274.652 277.445 271.250 C 278.128 269.024 278.037 269.001 268.817 269.100 C 263.693 269.156 257.806 269.600 255.734 270.088 "/></g>
<g fill="#CBDBE6EE" stroke="#CBDBE6EE">
<path d="M 227.532 272.250 L 226.160 275.500 231.161 275.805 C 236.700 276.143 238.546 275.154 239.251 271.469 C 239.706 269.090 239.526 269.000 234.313 269.000 C 229.158 269.000 228.839 269.153 227.532 272.250 M 236.794 272.860 C 236.575 274.011 235.218 274.592 232.241 274.807 C 228.104 275.107 227.455 274.584 228.520 271.807 C 229.329 269.700 237.203 270.701 236.794 272.860 "/></g>
<g fill="#CBDBE6EE" stroke="#CBDBE6EE">
<path d="M 165.000 275.918 C 165.000 276.423 164.727 277.548 164.393 278.418 C 163.878 279.761 164.772 280.000 170.311 280.000 C 178.128 280.000 180.000 279.400 180.000 276.893 C 180.000 275.204 179.192 275.000 172.500 275.000 C 168.375 275.000 165.000 275.413 165.000 275.918 M 179.000 277.000 C 179.000 277.565 176.147 278.000 172.441 278.000 C 168.323 278.000 166.112 277.628 166.500 277.000 C 166.840 276.450 169.791 276.000 173.059 276.000 C 176.353 276.000 179.000 276.446 179.000 277.000 "/></g>
<g fill="#CBDBE6EE" stroke="#CBDBE6EE">
<path d="M 206.833 239.000 C 206.441 243.704 206.577 244.303 207.343 241.250 C 208.149 238.041 208.234 238.000 214.079 238.000 C 217.336 238.000 220.000 238.231 220.000 238.513 C 220.000 238.795 219.129 242.170 218.064 246.013 L 216.127 253.000 223.088 253.000 C 229.641 253.000 230.107 252.849 231.025 250.435 C 232.529 246.480 232.102 245.086 230.509 248.750 C 229.183 251.801 228.787 252.000 224.048 252.000 C 218.257 252.000 218.084 251.589 220.511 243.591 C 221.330 240.891 222.000 238.304 222.000 237.841 C 222.000 237.378 218.625 237.000 214.500 237.000 C 207.722 237.000 206.984 237.193 206.833 239.000 "/></g>
<g fill="#CBDBE6EE" stroke="#CBDBE6EE">
<path d="M 210.414 223.765 C 209.816 224.169 208.827 225.963 208.216 227.750 L 207.104 231.000 210.927 231.000 C 214.241 231.000 214.957 230.572 216.305 227.790 C 217.160 226.025 217.639 224.225 217.371 223.790 C 216.758 222.799 211.868 222.781 210.414 223.765 "/></g>
<g fill="#CBDBE6EE" stroke="#CBDBE6EE">
<path d="M 221.203 224.256 C 220.630 224.946 219.851 226.746 219.472 228.256 C 218.815 230.873 218.952 231.000 222.440 231.000 C 225.616 231.000 226.276 230.574 227.459 227.760 C 228.208 225.978 228.610 224.178 228.352 223.760 C 227.590 222.527 222.335 222.892 221.203 224.256 "/></g>
<g fill="#226CAFFF" stroke="#226CAFFF">
<path d="M 117.500 283.000 L 113.594 287.000 119.817 287.000 L 126.041 287.000 124.000 283.000 C 122.878 280.800 121.835 279.000 121.683 279.000 C 121.530 279.000 119.648 280.800 117.500 283.000 "/></g>
<g fill="#226CAFFF" stroke="#226CAFFF">
<path d="M 361.000 246.508 C 372.888 249.844 380.806 255.422 382.282 261.500 C 382.637 262.961 382.799 262.727 382.884 260.632 C 383.127 254.630 370.717 246.533 359.500 245.376 C 355.963 245.012 356.137 245.143 361.000 246.508 "/></g>
<g fill="#226CAFFF" stroke="#226CAFFF">
<path d="M 126.332 268.927 L 133.164 269.500 138.547 282.000 C 141.508 288.875 143.946 293.902 143.965 293.170 C 143.984 292.439 141.698 286.476 138.884 279.920 L 133.768 268.000 126.634 268.177 L 119.500 268.353 126.332 268.927 "/></g>
<g fill="#226CAFFF" stroke="#226CAFFF">
<path d="M 397.605 274.137 C 403.168 275.388 409.315 280.900 412.573 287.559 C 415.778 294.110 416.884 294.228 414.095 287.722 C 410.248 278.748 402.616 272.751 395.500 273.113 C 394.400 273.169 395.347 273.630 397.605 274.137 "/></g>
<g fill="#226CAFFF" stroke="#226CAFFF">
<path d="M 180.797 237.115 C 188.598 238.414 193.637 241.503 195.291 246.000 C 195.647 246.970 195.870 246.689 195.921 245.205 C 196.092 240.246 188.199 235.880 179.500 236.122 C 175.650 236.230 175.699 236.267 180.797 237.115 "/></g>
<g fill="#CBDBE6EE" stroke="#CBDBE6EE">
<path d="M 196.271 274.432 L 195.043 277.000 202.021 277.000 C 205.860 277.000 209.000 277.146 209.000 277.325 C 209.000 277.504 207.876 280.954 206.502 284.994 C 205.128 289.033 204.182 292.515 204.399 292.732 C 204.784 293.117 210.000 278.230 210.000 276.747 C 210.000 276.336 207.080 276.000 203.512 276.000 C 197.542 276.000 197.043 275.835 197.262 273.932 C 197.457 272.239 197.277 272.330 196.271 274.432 "/></g>
<g fill="#226CAFFF" stroke="#226CAFFF">
<path d="M 228.520 271.807 C 227.455 274.584 228.104 275.107 232.241 274.807 C 235.218 274.592 236.575 274.011 236.794 272.860 C 237.203 270.701 229.329 269.700 228.520 271.807 "/></g>
<g fill="#226CAFFF" stroke="#226CAFFF">
<path d="M 419.125 220.782 C 418.974 225.971 421.107 231.452 423.850 232.920 C 424.960 233.514 428.486 233.919 431.684 233.820 L 437.500 233.640 432.500 233.299 C 423.660 232.696 421.302 230.484 419.994 221.571 L 419.250 216.500 419.125 220.782 "/></g>
<g fill="#226CAFFF" stroke="#226CAFFF">
<path d="M 314.880 270.080 C 321.971 271.473 325.750 274.533 327.132 280.000 C 327.758 282.477 327.764 282.474 327.882 279.684 C 327.947 278.136 327.514 275.960 326.919 274.849 C 325.486 272.170 318.372 269.022 314.000 269.132 C 310.589 269.217 310.612 269.241 314.880 270.080 "/></g>
<g fill="#226CAFFF" stroke="#226CAFFF">
<path d="M 426.530 276.788 C 426.957 282.797 430.405 293.000 432.007 293.000 C 432.425 293.000 431.632 290.189 430.245 286.754 C 428.857 283.318 427.353 278.256 426.902 275.504 C 426.119 270.728 426.102 270.786 426.530 276.788 "/></g>
<g fill="#226CAFFF" stroke="#226CAFFF">
<path d="M 209.607 226.582 C 208.515 229.428 208.961 230.138 211.642 229.816 C 213.295 229.618 214.593 228.657 215.110 227.250 C 215.844 225.249 215.619 225.000 213.075 225.000 C 211.389 225.000 209.965 225.649 209.607 226.582 "/></g>
<g fill="#226CAFFF" stroke="#226CAFFF">
<path d="M 221.000 225.918 C 221.000 226.423 220.713 227.584 220.362 228.498 C 219.847 229.840 220.259 230.096 222.505 229.830 C 224.295 229.617 225.578 228.699 226.110 227.250 C 226.849 225.237 226.623 225.000 223.968 225.000 C 222.335 225.000 221.000 225.413 221.000 225.918 "/></g>
<g fill="#226CAFFF" stroke="#226CAFFF">
<path d="M 74.340 277.740 C 74.707 278.334 78.043 279.338 81.754 279.971 C 88.681 281.153 91.239 282.378 92.259 285.000 C 92.650 286.006 92.868 285.750 92.921 284.225 C 93.011 281.636 91.128 280.683 82.883 279.148 C 79.922 278.597 76.639 277.811 75.586 277.403 C 74.320 276.912 73.898 277.026 74.340 277.740 "/></g>
<g fill="#226CAFFF" stroke="#226CAFFF">
<path d="M 361.000 229.868 C 361.000 231.101 371.964 234.023 376.066 233.883 C 378.860 233.788 378.519 233.603 374.231 232.889 C 371.333 232.406 367.341 231.334 365.359 230.505 C 361.151 228.747 361.000 228.725 361.000 229.868 "/></g>
<g fill="#CBDBE6EE" stroke="#CBDBE6EE">
<path d="M 407.040 240.316 C 406.948 242.197 409.255 245.080 411.980 246.490 C 413.814 247.438 417.245 247.940 421.200 247.838 L 427.500 247.677 420.500 247.023 C 412.049 246.233 410.366 245.547 408.510 242.131 C 407.723 240.684 407.062 239.867 407.040 240.316 "/></g>
<g fill="#226CAFFF" stroke="#226CAFFF">
<path d="M 186.381 270.034 C 187.965 270.509 190.299 271.872 191.567 273.063 C 193.773 275.135 193.850 275.143 193.352 273.236 C 192.765 270.992 189.015 268.957 185.703 269.086 C 183.878 269.157 183.994 269.320 186.381 270.034 "/></g>
<g fill="#226CAFFF" stroke="#226CAFFF">
<path d="M 413.500 207.911 C 414.600 208.432 416.481 208.891 417.680 208.930 C 419.117 208.976 420.009 209.768 420.294 211.250 C 420.666 213.179 420.747 213.108 420.864 210.750 C 420.950 209.017 420.491 208.000 419.625 208.000 C 418.869 208.000 416.731 207.766 414.875 207.481 C 412.251 207.077 411.945 207.173 413.500 207.911 "/></g>
<g fill="#226CAFFF" stroke="#226CAFFF">
<path d="M 447.539 235.250 C 448.269 237.588 448.890 238.600 448.919 237.500 C 448.995 234.662 447.907 231.000 446.989 231.000 C 446.561 231.000 446.808 232.913 447.539 235.250 "/></g>
<g fill="#226CAFFF" stroke="#226CAFFF">
<path d="M 267.015 250.250 C 267.004 251.588 267.764 251.968 270.250 251.864 C 273.002 251.749 273.117 251.656 271.000 251.263 C 269.625 251.007 268.169 250.281 267.765 249.649 C 267.293 248.911 267.025 249.126 267.015 250.250 "/></g>
</svg>
