<?xml version="1.0" standalone="no"?>
<!DOCTYPE svg PUBLIC "-//W3C//DTD SVG 20010904//EN"
 "http://www.w3.org/TR/2001/REC-SVG-20010904/DTD/svg10.dtd">
<svg version="1.0" xmlns="http://www.w3.org/2000/svg"
 width="2560.000000pt" height="869.000000pt" viewBox="0 0 2560.000000 869.000000"
 preserveAspectRatio="xMidYMid meet">

<g transform="translate(0.000000,869.000000) scale(0.100000,-0.100000)"
fill="#000000" stroke="none">
<path d="M18133 8680 c-82 -17 -168 -81 -205 -154 -28 -56 -36 -187 -15 -250
13 -39 14 -46 2 -46 -8 0 -29 -13 -47 -29 -27 -24 -32 -35 -32 -77 l-1 -49
339 -3 c265 -2 341 1 348 10 12 20 9 133 -4 146 -8 8 -59 12 -163 12 l-151 0
-26 28 c-39 41 -48 65 -48 127 0 51 3 60 34 91 29 29 41 34 80 34 51 0 90 -16
120 -49 11 -12 24 -21 30 -21 7 0 34 23 61 50 49 50 49 51 35 78 -9 15 -39 41
-67 58 -80 48 -187 64 -290 44z"/>
<path d="M18099 7895 c-25 -8 -61 -31 -82 -51 -71 -72 -68 -16 -65 -1034 l3
-915 197 -3 198 -2 5 22 c3 13 4 466 3 1008 l-3 985 -105 2 c-68 1 -121 -3
-151 -12z"/>
<path d="M21072 7898 c-58 -13 -136 -87 -151 -144 -8 -29 -10 -314 -9 -950 l3
-909 200 0 200 0 0 1005 0 1005 -100 2 c-55 0 -119 -3 -143 -9z"/>
<path d="M23939 7872 c-39 -20 -62 -41 -84 -77 l-30 -48 -5 -696 c-5 -671 -6
-697 -25 -735 -38 -75 -55 -81 -234 -81 -147 0 -159 1 -205 25 -95 49 -90 27
-96 468 l-5 387 -120 3 c-143 3 -188 -10 -238 -69 -53 -62 -57 -88 -57 -396 0
-222 -3 -290 -15 -331 -25 -84 -34 -87 -265 -87 -188 0 -197 1 -245 25 -28 14
-60 40 -72 59 -23 34 -23 37 -23 402 0 202 -3 374 -6 383 -5 13 -26 16 -125
16 -159 0 -206 -20 -262 -110 -22 -35 -22 -40 -28 -630 -5 -537 -7 -600 -23
-642 -35 -93 -107 -128 -262 -128 l-74 0 2 -172 3 -173 135 -3 c195 -5 283 19
402 108 49 37 64 56 102 134 60 122 76 188 83 333 l6 123 37 -34 c21 -19 51
-37 66 -40 175 -36 612 -34 754 4 49 13 100 48 126 87 l21 32 31 -39 c74 -91
195 -115 542 -108 214 4 228 6 288 30 l63 26 57 -30 57 -30 465 5 c502 5 579
12 684 60 149 68 205 178 227 442 19 220 1 335 -76 492 -62 125 -121 185 -245
246 -138 68 -205 82 -385 80 -91 0 -187 -7 -245 -18 -91 -16 -288 -74 -340
-100 -14 -7 -35 -16 -47 -19 l-23 -7 0 418 c0 313 -3 422 -12 431 -8 8 -49 12
-119 12 -97 0 -111 -2 -160 -28z m1047 -1064 c52 -19 108 -61 133 -102 30 -48
45 -145 38 -251 -12 -206 -35 -215 -602 -215 l-330 0 3 228 c2 125 7 230 10
233 25 24 237 90 367 115 89 17 323 12 381 -8z"/>
<path d="M14777 7876 c-54 -20 -91 -52 -125 -111 -16 -28 -17 -103 -22 -985
-5 -949 -5 -955 -26 -1001 -64 -139 -203 -206 -368 -179 -88 15 -132 37 -179
89 -53 59 -76 111 -89 202 -19 135 13 304 86 448 15 29 25 59 22 66 -2 7 -84
39 -180 71 l-176 59 -20 -21 c-22 -21 -86 -162 -120 -263 -51 -153 -63 -395
-25 -532 59 -219 204 -369 428 -444 238 -79 502 -64 717 41 215 106 340 311
340 559 l0 76 33 -24 c92 -70 164 -79 481 -60 261 15 322 24 380 54 56 29 84
56 111 109 42 84 46 137 43 625 l-3 460 -137 0 c-136 0 -137 0 -180 -30 -24
-17 -54 -51 -68 -75 -25 -45 -25 -46 -30 -375 -5 -358 -6 -361 -63 -392 -27
-15 -59 -18 -222 -18 -178 0 -193 2 -237 24 -27 12 -58 37 -70 54 l-23 32 -5
775 c-3 426 -6 776 -8 778 -8 9 -234 -1 -265 -12z"/>
<path d="M19804 7451 c-49 -22 -112 -93 -119 -135 -4 -17 -5 -65 -3 -106 l3
-75 170 0 170 0 0 165 0 165 -90 2 c-70 2 -99 -1 -131 -16z"/>
<path d="M16578 7180 c-16 -10 -18 -30 -18 -175 0 -163 0 -165 23 -170 12 -2
119 -6 237 -7 211 -3 216 -4 270 -30 38 -19 64 -40 83 -70 l28 -43 -3 -181
c-3 -165 -5 -184 -23 -204 -47 -52 -63 -55 -330 -58 -278 -4 -292 -7 -353 -76
-41 -47 -54 -95 -50 -191 l3 -80 425 0 c478 0 522 5 610 69 55 40 105 127 126
223 24 106 31 537 10 626 -33 138 -117 257 -222 310 -113 57 -134 60 -479 64
-216 2 -326 0 -337 -7z"/>
<path d="M20280 6874 c-45 -20 -87 -59 -111 -106 -18 -35 -19 -63 -19 -452 0
-385 -1 -418 -20 -478 -37 -122 -103 -185 -224 -215 -59 -14 -80 -15 -150 -5
-98 14 -155 46 -208 117 -54 71 -72 138 -69 261 2 120 24 218 77 332 20 45 34
88 31 96 -7 17 -341 130 -362 122 -24 -9 -114 -207 -139 -308 -54 -209 -54
-389 -1 -556 32 -100 84 -180 170 -261 81 -76 169 -120 310 -157 84 -22 122
-27 235 -27 388 -1 655 174 734 479 14 53 16 144 16 618 l0 556 -117 0 c-83
-1 -129 -5 -153 -16z"/>
<path d="M15544 5595 c-87 -43 -128 -128 -122 -250 l3 -60 175 0 175 0 0 165
0 165 -90 3 c-80 2 -96 0 -141 -23z"/>
<path d="M15897 5614 c-4 -4 -7 -81 -7 -171 l0 -163 173 2 172 3 0 165 0 165
-166 3 c-91 1 -168 -1 -172 -4z"/>
<path d="M22709 5592 c-39 -20 -62 -41 -84 -77 -27 -44 -30 -56 -30 -139 l0
-91 169 -3 c129 -2 171 1 178 10 9 15 11 289 2 312 -5 13 -23 16 -94 16 -77 0
-94 -4 -141 -28z"/>
<path d="M23060 5450 l0 -170 173 2 172 3 3 145 c1 80 0 155 -3 168 -5 22 -7
22 -175 22 l-170 0 0 -170z"/>
<path d="M7290 5269 c-153 -18 -320 -80 -450 -169 -120 -82 -231 -283 -259
-470 -9 -55 -11 -518 -9 -1758 3 -1653 3 -1684 22 -1698 16 -11 86 -14 392
-14 l373 0 15 22 c14 20 16 150 16 1199 l0 1176 108 5 c95 4 116 8 175 35 155
73 227 205 227 417 0 133 15 126 -275 126 l-243 0 -4 143 c-5 209 6 241 98
287 45 23 63 25 217 30 152 5 170 7 183 24 11 16 14 75 14 307 0 353 11 327
-145 334 -251 11 -384 12 -455 4z"/>
<path d="M17567 5262 c-15 -17 -17 -51 -18 -318 -1 -164 -4 -460 -8 -658 l-6
-359 -40 59 c-94 138 -276 287 -420 344 -138 56 -217 72 -385 77 -227 8 -381
-26 -575 -125 -242 -125 -419 -318 -556 -607 -141 -298 -189 -545 -189 -958 0
-392 44 -608 179 -892 139 -290 280 -448 501 -560 191 -97 480 -156 761 -156
305 0 581 61 856 191 393 185 564 401 648 815 42 204 46 391 43 1670 l-3 1180
-24 60 c-33 82 -130 183 -214 221 -62 29 -62 29 -297 32 -221 3 -237 2 -253
-16z m-539 -1587 c116 -27 239 -103 319 -195 79 -91 162 -301 188 -477 8 -54
15 -163 15 -242 0 -236 -37 -424 -122 -621 -36 -82 -52 -106 -117 -171 -81
-80 -160 -127 -261 -154 -76 -20 -274 -20 -354 1 -162 42 -298 154 -375 310
-96 193 -130 341 -137 584 -8 266 22 433 107 604 98 196 206 298 372 352 88
28 264 33 365 9z"/>
<path d="M8236 5244 c-14 -14 -16 -213 -16 -2038 0 -1947 1 -2024 18 -2039 17
-15 59 -17 399 -17 355 0 381 1 396 18 16 17 17 164 17 1905 0 1883 0 1886
-21 1942 -22 60 -100 153 -160 190 -75 48 -125 55 -380 55 -203 0 -240 -2
-253 -16z"/>
<path d="M24759 5244 c-12 -15 -14 -306 -14 -2036 0 -1988 0 -2020 19 -2034
16 -11 88 -14 403 -14 l383 0 15 23 c14 21 15 229 13 1908 l-3 1884 -27 58
c-35 74 -121 160 -195 195 -58 27 -59 27 -319 30 -236 3 -262 2 -275 -14z"/>
<path d="M13635 4400 c-96 -4 -205 -15 -250 -24 -348 -76 -631 -257 -768 -491
-56 -95 -109 -251 -105 -308 5 -67 6 -67 394 -67 356 0 398 4 410 42 9 29 72
97 107 115 159 82 435 94 672 28 127 -35 181 -78 211 -168 29 -88 -4 -194 -79
-251 -71 -54 -258 -107 -482 -136 -217 -28 -533 -87 -630 -117 -108 -34 -283
-118 -378 -182 -135 -91 -250 -264 -298 -446 -18 -68 -21 -110 -21 -280 -1
-231 14 -318 81 -460 102 -219 241 -351 470 -451 194 -84 369 -107 691 -94
419 18 585 50 806 154 284 135 464 344 569 659 64 193 65 215 65 978 0 750 -1
765 -58 911 -40 103 -107 201 -197 286 -60 58 -97 83 -188 127 -132 64 -287
116 -425 145 -106 21 -297 41 -377 38 -27 -1 -126 -5 -220 -8z m675 -1905 c1
-208 -8 -261 -59 -370 -63 -135 -173 -244 -313 -310 -97 -46 -189 -65 -323
-65 -124 0 -174 10 -252 46 -221 105 -259 433 -71 615 79 78 161 111 423 169
214 48 429 111 535 158 l45 19 7 -36 c4 -20 7 -121 8 -226z"/>
<path d="M22980 4399 c-190 -7 -269 -21 -426 -74 -123 -41 -202 -79 -311 -151
-192 -127 -328 -321 -378 -539 -14 -60 -14 -69 -1 -91 9 -13 30 -26 48 -29 18
-3 188 -5 377 -3 l344 3 21 29 c41 57 90 107 119 123 16 8 66 27 111 41 73 23
96 26 236 26 222 0 399 -41 468 -107 89 -85 102 -191 37 -292 -37 -57 -86 -88
-195 -123 -135 -44 -156 -48 -335 -72 -294 -38 -582 -96 -710 -143 -64 -23
-217 -102 -292 -151 -159 -103 -280 -298 -317 -508 -18 -101 -20 -326 -5 -438
45 -325 258 -586 582 -711 194 -74 337 -92 655 -79 424 18 584 49 817 160 320
153 515 415 601 811 18 78 19 140 19 814 0 724 0 731 -22 810 -13 44 -45 125
-72 181 -106 213 -264 330 -587 434 -171 54 -414 93 -559 88 -27 -1 -129 -5
-225 -9z m679 -1944 c1 -149 -11 -222 -50 -310 -82 -186 -269 -339 -464 -380
-93 -19 -274 -19 -350 0 -88 23 -163 73 -207 136 -55 81 -72 144 -66 249 7
112 37 180 112 256 84 83 159 114 431 175 213 47 426 110 535 157 l45 19 7
-81 c3 -45 6 -144 7 -221z"/>
<path d="M19765 4384 c-359 -66 -658 -251 -841 -520 -212 -310 -301 -604 -309
-1019 -8 -422 41 -689 181 -982 193 -405 519 -659 951 -743 136 -27 445 -29
609 -5 205 31 430 117 604 231 146 95 315 278 403 435 44 80 103 222 112 272
13 69 21 67 -341 67 -402 0 -392 2 -530 -134 -152 -152 -237 -186 -463 -186
-156 0 -210 10 -305 53 -179 82 -329 347 -338 599 l-3 83 1028 3 1028 2 16 38
c13 31 14 62 9 182 -23 466 -138 827 -369 1148 -152 212 -452 394 -772 468
-101 23 -558 29 -670 8z m461 -679 c129 -30 247 -103 311 -192 74 -101 125
-240 139 -375 l7 -68 -613 0 -613 0 6 64 c23 248 158 452 353 537 108 46 293
62 410 34z"/>
<path d="M9408 4323 c-8 -10 -18 -26 -21 -35 -3 -10 226 -676 543 -1579 302
-859 555 -1588 561 -1621 32 -159 -26 -269 -176 -340 -91 -42 -181 -58 -337
-58 -130 0 -138 -1 -152 -22 -14 -19 -16 -67 -16 -320 0 -289 1 -299 21 -319
21 -21 26 -21 327 -16 330 5 391 13 542 70 124 46 165 73 246 161 92 99 172
221 220 338 18 46 307 895 640 1887 574 1706 606 1806 593 1830 l-15 26 -324
0 c-321 0 -326 0 -372 -23 -63 -32 -130 -92 -161 -145 -15 -25 -137 -437 -313
-1050 -158 -554 -291 -1004 -295 -1000 -4 5 -147 501 -319 1103 -172 602 -319
1103 -328 1113 -14 16 -47 17 -432 17 -385 0 -418 -1 -432 -17z"/>
</g>
</svg>
