<?xml version="1.0" encoding="iso-8859-1"?>
<!-- Generator: Adobe Illustrator 23.0.1, SVG Export Plug-In . SVG Version: 6.00 Build 0)  -->
<svg version="1.1" id="Layer_1" xmlns="http://www.w3.org/2000/svg" xmlns:xlink="http://www.w3.org/1999/xlink" x="0px" y="0px"
	 viewBox="0 0 512 512" style="enable-background:new 0 0 512 512;" xml:space="preserve">
<g>
	<path style="fill:#B18D32;" d="M89.837,251.001c0.698-2.457,1.294-4.561,2.104-7.413c-5.365-0.112-10.245,0.361-14.713,2.768
		c-1.28,0.689-1.975,2.468-3.617,4.645H89.837z M117.93,240.966c4.491-5.264,8.121-9.564,11.803-13.822
		c2.342-2.712,4.953-5.214,7.076-8.085c1.947-2.631,4.297-3.292,7.357-3.076c3.056,0.216,6.144,0.048,10.455,0.048
		c-4.746,5.782-8.811,10.732-13.355,16.268c3.356,0.151,6.118,0.353,8.883,0.384c11.976,0.137,23.961,0.025,35.929,0.443
		c3.858,0.137,7.875,1.118,11.455,2.597c6.721,2.782,7.976,6.617,5.704,15.299h11.94c1.843-5.984,3.656-11.859,5.474-17.758h17.094
		c-1.801,6.04-3.482,11.685-5.298,17.773h14.332c1.745-5.76,3.527-11.629,5.412-17.848h17.036c-2.793,9.18-5.44,17.885-8.222,27.02
		h-157.03c-2.3,8.777-8.346,13.758-16.19,16.534c-4.499,1.591-9.334,2.23-14.946,3.507c1.233-3.981,2.079-6.712,2.93-9.466
		c5.342-1.429,9.388-4.006,10.584-10.279H54.992c-1.23-9.612,7.088-22.44,16.968-25.14c6.107-1.67,12.651-1.947,19.03-2.353
		c6.183-0.395,12.405-0.162,18.61-0.176c0.742,0,1.488,0.205,2.726,0.384c-1.745,5.953-3.421,11.651-5.214,17.764h79.004
		c1.972-6.13-1.552-9.27-6.948-9.435c-18.336-0.566-36.691-0.443-55.04-0.577C122.46,240.955,120.79,240.966,117.93,240.966"/>
	<path style="fill:#B18D32;" d="M284.803,216.254h17.089c-3.622,11.657-7.118,22.922-10.797,34.758h8.379
		c1.759-5.934,3.488-11.758,5.298-17.851h17.078c-1.866,6.225-3.622,12.072-5.351,17.831h7.295
		c1.855-6.057,3.605-11.769,5.452-17.798h16.963c-1.776,6.071-3.44,11.763-5.23,17.879h7.06c1.799-5.967,3.577-11.864,5.382-17.845
		h17.078c-2.796,9.094-5.474,17.806-8.267,26.88c-0.961,0.134-2.023,0.412-3.084,0.415c-22.569,0.014-45.14,0.053-67.709-0.064
		c-3.485-0.02-7.068-0.392-10.43-1.266c-5.045-1.314-7.595-5.729-6.132-10.78C277.973,237.719,281.422,227.13,284.803,216.254"/>
	<path style="fill:#B18D32;" d="M320.038,292.777h26.426c2.664-8.063-4.603-9.645-10.965-9.645
		C326.908,283.132,319.761,286.141,320.038,292.777 M359.923,303.381h-60.923c0.734-2.426,1.58-4.381,1.899-6.418
		c2.687-17.142,15.26-22.574,29.998-24.639c9.001-1.261,18.162-1.289,26.821,2.902c6.609,3.202,8.967,9.517,5.998,16.386
		C362.097,295.357,361.178,299.406,359.923,303.381"/>
	<path style="fill:#B18D32;" d="M117.178,282.416c-4.16,3.813-8.015,7.348-12.64,11.59h17.873
		C120.668,290.145,119.119,286.716,117.178,282.416 M143.072,303.424h-65.14c2.659-2.639,4.48-4.58,6.441-6.365
		c8.953-8.152,17.938-16.263,26.939-24.356c0.549-0.496,1.322-1.034,2-1.045c5.23-0.087,10.464-0.048,15.968-0.048
		C133.83,282.102,138.303,292.423,143.072,303.424"/>
	<path style="fill:#B18D32;" d="M169.894,282.477c7.359,0.07,12.2,0.123,14.422,0.146c0.7,0.008,1.272-0.574,1.23-1.275
		c0-0.011,0-0.022,0-0.031c-0.036-0.656-0.566-1.174-1.221-1.174h-13.411C170.631,280.796,170.272,281.614,169.894,282.477
		 M145.872,303.367c3.569-10.816,6.925-20.991,10.349-31.374c10.817,0,21.294-0.143,31.766,0.087
		c3.084,0.067,6.449,0.602,9.119,2.003c2.208,1.16,5.037,3.958,4.975,5.95c-0.084,2.787-1.936,6.53-4.227,8.004
		c-3.202,2.059-7.455,3.02-11.349,3.342c-6.323,0.518-12.719,0.14-19.437,0.14c-1.432,4-2.849,7.967-4.236,11.847H145.872z"/>
	<path style="fill:#B18D32;" d="M31,303.352c0.801-3.241,1.513-6.135,2.322-9.41h26.247c0.084-0.448,0.168-0.896,0.252-1.345
		c-2.975-0.86-5.967-1.672-8.923-2.591c-2.622-0.812-5.292-1.552-7.791-2.661c-5.704-2.533-6.443-8.704-1.294-12.226
		c2.32-1.588,5.27-2.936,8.009-3.096c7.242-0.429,14.523-0.146,22.098-0.146c-0.616,2.404-1.283,4.802-1.841,7.222
		c-0.678,0.02-8.917-0.064-10.8,0.532c-0.633,0.202-1.317,0.479-1.608,1.076c-1.224,2.493,10.052,4.071,12.777,4.704
		c1.832,0.423,3.678,0.922,5.404,1.653c4.933,2.084,5.833,4.295,4.079,9.253c-0.838,2.37-1.555,4.785-2.28,7.034H31z"/>
	<path style="fill:#B18D32;" d="M461.575,304.178h-12.584c-3.278-6.477-7.102-12.906-9.867-19.761
		c-4.057-10.066,0.168-20.473,11.629-25.953c8.623-4.124,30.051-9.615,30.051-9.615c0,3.505,0.196,6.992,0.196,10.713
		c-3.241,1.02-6.6,2.098-9.634,3.589c-4.838,2.729-10.057,5.457-13.694,9.472c-5.194,5.729-2.706,12.873-0.77,19.411
		c0.995,3.356,2.58,6.533,3.883,9.799C461.04,302.472,461.227,303.142,461.575,304.178"/>
	<path style="fill:#B18D32;" d="M377.848,244.533c1.289-4.662,2.348-8.488,3.493-12.643c9.416,2.818,18.453,7.813,28.093,2.087
		c9.36-5.558,11.113-15.097,12.976-25.062c2.922-0.448,6.379-0.961,9.92-1.507c0,2.9-0.039,5.561-0.317,8.147
		c-0.981,9.178-2.729,18.148-7.626,26.222c-5.373,8.858-15.234,12.842-25.731,9.797
		C391.864,249.601,385.238,247.057,377.848,244.533"/>
	<path style="fill:#B18D32;" d="M439.016,207.427c3.737,0.642,6.415,1.168,10.054,1.793c-0.602,3.429-1.146,6.511-1.686,9.595
		c-2.353,13.357,4.905,20.456,18.392,17.904c3.849-0.728,7.648-1.712,11.817-2.653c0.888,2.79,1.782,5.595,2.891,9.077
		c-4.146,1.74-8.088,3.782-12.262,5.051c-5.726,1.74-11.576,3.196-17.47,4.23c-8.107,1.418-15.996-2.673-17.148-9.592
		c-0.874-5.261-0.227-10.914,0.555-16.276c0.776-5.326,2.591-10.497,3.894-15.75C438.282,209.873,438.567,209.01,439.016,207.427"/>
	<path style="fill:#B18D32;" d="M373.507,260.664c1.135-3.939,2.135-7.415,3.328-11.567c4.031,1.101,8.407,1.88,12.444,3.51
		c4.255,1.717,8.567,3.751,12.181,6.527c7.27,5.586,7.967,14.607,1.311,23.695c-5.216,7.121-11.595,13.394-17.464,20.036
		c-0.224,0.252-0.513,0.608-0.793,0.63c-4.404,0.328-8.811,0.608-14.108,0.958c5.034-6.085,9.161-11.192,13.416-16.19
		c5.116-6.006,6.995-12.693,3.199-17.84C383.923,264.818,374.179,260.944,373.507,260.664"/>
	<path style="fill:#B18D32;" d="M295.015,303.372h-43.274c1.283-4.264,2.533-7.945,3.496-11.702
		c2.846-11.088,11.536-15.613,21.372-17.574c8.514-1.695,17.391-1.574,26.112-2.222c0.653-0.048,1.328,0.179,2.476,0.35
		c-0.947,2.74-1.815,5.253-2.675,7.743c-9.735,0.84-20.112-1.644-27.678,6.684c-1.348,1.488-1.678,3.897-2.712,6.455h25.888
		C296.934,296.82,295.99,300.039,295.015,303.372"/>
	<path style="fill:#B18D32;" d="M429.386,304.592c0,0-1.899-1.359-5.242-3.524c-6.152-3.984-11.119,1.224-16.795,3.233
		c0,0-11.08-0.213-16.848-0.045c6.757-9.701,13.962-18.268,24.79-22.653c6.09-2.462,13.226-0.86,17.532,4.572
		c4.107,5.183,8.626,12.562,12.284,18.103C445.107,304.278,432.464,304.536,429.386,304.592"/>
	<path style="fill:#B18D32;" d="M222.012,280.274h-16.176c1.067-2.992,1.972-5.53,2.947-8.259h33.015
		c-3.521,10.794-6.878,21.087-10.248,31.416h-17.125C217,295.57,219.42,288.185,222.012,280.274"/>
	<path style="fill:#B18D32;" d="M255.996,280.068h-13.559c0.835-2.869,1.56-5.362,2.362-8.113h14.285
		C257.954,274.922,256.996,277.438,255.996,280.068"/>
	<path style="fill:#B18D32;" d="M219.499,225.109c1.093-3.082,2.037-5.749,2.964-8.368h9.629c-0.95,3.014-1.759,5.578-2.639,8.368
		H219.499z"/>
	<path style="fill:#B18D32;" d="M245.469,216.897c-0.989,3.028-1.869,5.718-2.726,8.34h-9.603c0.829-2.787,1.58-5.314,2.482-8.34
		H245.469z"/>
</g>
</svg>
